<svg width="796" height="736" viewBox="0 0 796 736" fill="none" xmlns="http://www.w3.org/2000/svg">
<rect x="0.5" y="142.5" width="715" height="524" rx="20.5" fill="#00011D"/>
<g filter="url(#filter0_ii_70_1251)">
<path d="M277 313C277 306.373 282.373 301 289 301H385C391.627 301 397 306.373 397 313V393C397 399.627 391.627 405 385 405H289C282.373 405 277 399.627 277 393V313Z" fill="#8A7DD8"/>
</g>
<path d="M277 313C277 306.373 282.373 301 289 301H385C391.627 301 397 306.373 397 313V393C397 399.627 391.627 405 385 405H289C282.373 405 277 399.627 277 393V313Z" stroke="#1F2024" stroke-width="4"/>
<g filter="url(#filter1_i_70_1251)">
<path d="M327 313C327 306.373 332.373 301 339 301H427C433.627 301 439 306.373 439 313V393C439 399.627 433.627 405 427 405H339C332.373 405 327 399.627 327 393V313Z" fill="#AEA5EE"/>
</g>
<path d="M327 313C327 306.373 332.373 301 339 301H427C433.627 301 439 306.373 439 313V393C439 399.627 433.627 405 427 405H339C332.373 405 327 399.627 327 393V313Z" stroke="#1F2024" stroke-width="4"/>
<path d="M391 303H410L382 403H363L391 303Z" fill="white" fill-opacity="0.5"/>
<path d="M383.5 303H386.5L358.5 403H355.5L383.5 303Z" fill="white" fill-opacity="0.5"/>
<path d="M277 350.5C277 348.291 278.791 346.5 281 346.5H311C313.209 346.5 315 348.291 315 350.5V370.5C315 372.709 313.209 374.5 311 374.5H281C278.791 374.5 277 372.709 277 370.5V350.5Z" fill="#1F2024" fill-opacity="0.16"/>
<g filter="url(#filter2_ii_70_1251)">
<path d="M275 344.5C275 342.291 276.791 340.5 279 340.5H311.5C313.709 340.5 315.5 342.291 315.5 344.5V364.5C315.5 366.709 313.709 368.5 311.5 368.5H279C276.791 368.5 275 366.709 275 364.5V344.5Z" fill="#8A7DD8"/>
</g>
<path d="M275 344.5C275 342.291 276.791 340.5 279 340.5H311.5C313.709 340.5 315.5 342.291 315.5 344.5V364.5C315.5 366.709 313.709 368.5 311.5 368.5H279C276.791 368.5 275 366.709 275 364.5V344.5Z" stroke="#1F2024" stroke-width="4"/>
<g filter="url(#filter3_i_70_1251)">
<path d="M303.5 344.5C303.5 342.291 305.291 340.5 307.5 340.5H311.5C313.709 340.5 315.5 342.291 315.5 344.5V364.5C315.5 366.709 313.709 368.5 311.5 368.5H307.5C305.291 368.5 303.5 366.709 303.5 364.5V344.5Z" fill="#AEA5EE"/>
</g>
<path d="M303.5 344.5C303.5 342.291 305.291 340.5 307.5 340.5H311.5C313.709 340.5 315.5 342.291 315.5 344.5V364.5C315.5 366.709 313.709 368.5 311.5 368.5H307.5C305.291 368.5 303.5 366.709 303.5 364.5V344.5Z" stroke="#1F2024" stroke-width="4"/>
<rect x="283.5" y="350" width="4" height="10" rx="2" fill="#1F2024"/>
<rect x="289.5" y="350" width="4" height="10" rx="2" fill="#1F2024"/>
<rect x="354.5" y="275.5" width="7" height="22.5" fill="#AEA5EE" stroke="#1F2024" stroke-width="4"/>
<g filter="url(#filter4_i_70_1251)">
<circle cx="358" cy="271.5" r="11.5" fill="#9BCEF1"/>
</g>
<circle cx="358" cy="271.5" r="11.5" stroke="#1F2024" stroke-width="4"/>
<circle cx="362.5" cy="267" r="3" fill="white"/>
<g filter="url(#filter5_i_70_1251)">
<path d="M348.5 297C348.5 295.895 349.395 295 350.5 295H365.5C366.605 295 367.5 295.895 367.5 297V301H348.5V297Z" fill="#AEA5EE"/>
</g>
<path d="M348.5 297C348.5 295.895 349.395 295 350.5 295H365.5C366.605 295 367.5 295.895 367.5 297V301H348.5V297Z" stroke="#1F2024" stroke-width="4"/>
<g filter="url(#filter6_d_70_1251)">
<path d="M428.179 346.75C428.179 358.248 425.321 368.561 420.805 375.934C416.269 383.341 410.27 387.5 403.999 387.5C397.727 387.5 391.728 383.341 387.192 375.934C382.676 368.561 379.818 358.248 379.818 346.75C379.818 335.252 382.676 324.939 387.192 317.566C391.728 310.159 397.727 306 403.999 306C410.27 306 416.269 310.159 420.805 317.566C425.321 324.939 428.179 335.252 428.179 346.75Z" fill="#1F2024" stroke="#1F2024" stroke-width="4"/>
<g filter="url(#filter7_i_70_1251)">
<ellipse cx="406.295" cy="346.25" rx="26.1802" ry="42.75" fill="white"/>
</g>
<path d="M430.476 346.25C430.476 357.748 427.618 368.061 423.102 375.434C418.566 382.841 412.567 387 406.295 387C400.024 387 394.025 382.841 389.489 375.434C384.973 368.061 382.115 357.748 382.115 346.25C382.115 334.752 384.973 324.439 389.489 317.066C394.025 309.659 400.024 305.5 406.295 305.5C412.567 305.5 418.566 309.659 423.102 317.066C427.618 324.439 430.476 334.752 430.476 346.25Z" stroke="#1F2024" stroke-width="4"/>
<path d="M409.388 345.25C409.388 352.139 404.182 357.5 398.027 357.5C391.873 357.5 386.667 352.139 386.667 345.25C386.667 338.361 391.873 333 398.027 333C404.182 333 409.388 338.361 409.388 345.25Z" fill="#1058C5" stroke="#1F2024" stroke-width="4"/>
<path d="M401.58 345.25C401.58 348.114 399.203 350.5 396.19 350.5C393.178 350.5 390.801 348.114 390.801 345.25C390.801 342.386 393.178 340 396.19 340C399.203 340 401.58 342.386 401.58 345.25Z" fill="#1F2024" stroke="#1F2024" stroke-width="4"/>
<ellipse cx="402.243" cy="341.25" rx="3.63372" ry="3.75" fill="white"/>
<path d="M375.36 346.75C375.36 358.248 372.502 368.561 367.987 375.934C363.451 383.341 357.451 387.5 351.18 387.5C344.909 387.5 338.91 383.341 334.374 375.934C329.858 368.561 327 358.248 327 346.75C327 335.252 329.858 324.939 334.374 317.566C338.91 310.159 344.909 306 351.18 306C357.451 306 363.451 310.159 367.987 317.566C372.502 324.939 375.36 335.252 375.36 346.75Z" fill="#1F2024" stroke="#1F2024" stroke-width="4"/>
<g filter="url(#filter8_i_70_1251)">
<ellipse cx="353.477" cy="346.25" rx="26.1802" ry="42.75" fill="white"/>
</g>
<path d="M377.657 346.25C377.657 357.748 374.799 368.061 370.284 375.434C365.748 382.841 359.748 387 353.477 387C347.206 387 341.207 382.841 336.67 375.434C332.155 368.061 329.297 357.748 329.297 346.25C329.297 334.752 332.155 324.439 336.67 317.066C341.207 309.659 347.206 305.5 353.477 305.5C359.748 305.5 365.748 309.659 370.284 317.066C374.799 324.439 377.657 334.752 377.657 346.25Z" stroke="#1F2024" stroke-width="4"/>
<path d="M356.57 345.25C356.57 352.139 351.364 357.5 345.209 357.5C339.054 357.5 333.849 352.139 333.849 345.25C333.849 338.361 339.054 333 345.209 333C351.364 333 356.57 338.361 356.57 345.25Z" fill="#1058C5" stroke="#1F2024" stroke-width="4"/>
<path d="M348.761 345.25C348.761 348.114 346.385 350.5 343.372 350.5C340.359 350.5 337.982 348.114 337.982 345.25C337.982 342.386 340.359 340 343.372 340C346.385 340 348.761 342.386 348.761 345.25Z" fill="#1F2024" stroke="#1F2024" stroke-width="4"/>
<ellipse cx="349.425" cy="341.25" rx="3.63372" ry="3.75" fill="white"/>
</g>
<path d="M252.996 475.96C252.996 474.573 253.296 473.34 253.896 472.26C254.496 471.167 255.329 470.32 256.396 469.72C257.476 469.107 258.696 468.8 260.056 468.8C261.723 468.8 263.149 469.24 264.336 470.12C265.523 471 266.316 472.2 266.716 473.72H262.956C262.676 473.133 262.276 472.687 261.756 472.38C261.249 472.073 260.669 471.92 260.016 471.92C258.963 471.92 258.109 472.287 257.456 473.02C256.803 473.753 256.476 474.733 256.476 475.96C256.476 477.187 256.803 478.167 257.456 478.9C258.109 479.633 258.963 480 260.016 480C260.669 480 261.249 479.847 261.756 479.54C262.276 479.233 262.676 478.787 262.956 478.2H266.716C266.316 479.72 265.523 480.92 264.336 481.8C263.149 482.667 261.723 483.1 260.056 483.1C258.696 483.1 257.476 482.8 256.396 482.2C255.329 481.587 254.496 480.74 253.896 479.66C253.296 478.58 252.996 477.347 252.996 475.96ZM272.23 468.2V483H268.81V468.2H272.23ZM274.029 477.4C274.029 476.253 274.242 475.247 274.669 474.38C275.109 473.513 275.702 472.847 276.449 472.38C277.195 471.913 278.029 471.68 278.949 471.68C279.735 471.68 280.422 471.84 281.009 472.16C281.609 472.48 282.069 472.9 282.389 473.42V471.84H285.809V483H282.389V481.42C282.055 481.94 281.589 482.36 280.989 482.68C280.402 483 279.715 483.16 278.929 483.16C278.022 483.16 277.195 482.927 276.449 482.46C275.702 481.98 275.109 481.307 274.669 480.44C274.242 479.56 274.029 478.547 274.029 477.4ZM282.389 477.42C282.389 476.567 282.149 475.893 281.669 475.4C281.202 474.907 280.629 474.66 279.949 474.66C279.269 474.66 278.689 474.907 278.209 475.4C277.742 475.88 277.509 476.547 277.509 477.4C277.509 478.253 277.742 478.933 278.209 479.44C278.689 479.933 279.269 480.18 279.949 480.18C280.629 480.18 281.202 479.933 281.669 479.44C282.149 478.947 282.389 478.273 282.389 477.42ZM290.003 470.68C289.403 470.68 288.91 470.507 288.523 470.16C288.15 469.8 287.963 469.36 287.963 468.84C287.963 468.307 288.15 467.867 288.523 467.52C288.91 467.16 289.403 466.98 290.003 466.98C290.59 466.98 291.07 467.16 291.443 467.52C291.83 467.867 292.023 468.307 292.023 468.84C292.023 469.36 291.83 469.8 291.443 470.16C291.07 470.507 290.59 470.68 290.003 470.68ZM291.703 471.84V483H288.283V471.84H291.703ZM308.421 471.72C309.808 471.72 310.908 472.14 311.721 472.98C312.548 473.82 312.961 474.987 312.961 476.48V483H309.561V476.94C309.561 476.22 309.368 475.667 308.981 475.28C308.608 474.88 308.088 474.68 307.421 474.68C306.755 474.68 306.228 474.88 305.841 475.28C305.468 475.667 305.281 476.22 305.281 476.94V483H301.881V476.94C301.881 476.22 301.688 475.667 301.301 475.28C300.928 474.88 300.408 474.68 299.741 474.68C299.075 474.68 298.548 474.88 298.161 475.28C297.788 475.667 297.601 476.22 297.601 476.94V483H294.181V471.84H297.601V473.24C297.948 472.773 298.401 472.407 298.961 472.14C299.521 471.86 300.155 471.72 300.861 471.72C301.701 471.72 302.448 471.9 303.101 472.26C303.768 472.62 304.288 473.133 304.661 473.8C305.048 473.187 305.575 472.687 306.241 472.3C306.908 471.913 307.635 471.72 308.421 471.72ZM326.752 483L323.832 477.7H323.012V483H319.592V468.96H325.332C326.438 468.96 327.378 469.153 328.152 469.54C328.938 469.927 329.525 470.46 329.912 471.14C330.298 471.807 330.492 472.553 330.492 473.38C330.492 474.313 330.225 475.147 329.692 475.88C329.172 476.613 328.398 477.133 327.372 477.44L330.612 483H326.752ZM323.012 475.28H325.132C325.758 475.28 326.225 475.127 326.532 474.82C326.852 474.513 327.012 474.08 327.012 473.52C327.012 472.987 326.852 472.567 326.532 472.26C326.225 471.953 325.758 471.8 325.132 471.8H323.012V475.28ZM343.158 477.24C343.158 477.56 343.138 477.893 343.098 478.24H335.358C335.412 478.933 335.632 479.467 336.018 479.84C336.418 480.2 336.905 480.38 337.478 480.38C338.332 480.38 338.925 480.02 339.258 479.3H342.898C342.712 480.033 342.372 480.693 341.878 481.28C341.398 481.867 340.792 482.327 340.058 482.66C339.325 482.993 338.505 483.16 337.598 483.16C336.505 483.16 335.532 482.927 334.678 482.46C333.825 481.993 333.158 481.327 332.678 480.46C332.198 479.593 331.958 478.58 331.958 477.42C331.958 476.26 332.192 475.247 332.658 474.38C333.138 473.513 333.805 472.847 334.658 472.38C335.512 471.913 336.492 471.68 337.598 471.68C338.678 471.68 339.638 471.907 340.478 472.36C341.318 472.813 341.972 473.46 342.438 474.3C342.918 475.14 343.158 476.12 343.158 477.24ZM339.658 476.34C339.658 475.753 339.458 475.287 339.058 474.94C338.658 474.593 338.158 474.42 337.558 474.42C336.985 474.42 336.498 474.587 336.098 474.92C335.712 475.253 335.472 475.727 335.378 476.34H339.658ZM344.283 477.44C344.283 476.333 344.509 475.347 344.963 474.48C345.429 473.613 346.049 472.94 346.823 472.46C347.609 471.967 348.463 471.72 349.383 471.72C350.089 471.72 350.723 471.847 351.283 472.1C351.843 472.34 352.296 472.68 352.643 473.12V471.84H356.063V488.32H352.643V481.6C352.256 482.067 351.783 482.44 351.223 482.72C350.676 483 350.049 483.14 349.343 483.14C348.436 483.14 347.596 482.9 346.823 482.42C346.049 481.94 345.429 481.267 344.963 480.4C344.509 479.533 344.283 478.547 344.283 477.44ZM352.643 477.42C352.643 476.82 352.523 476.32 352.283 475.92C352.056 475.507 351.756 475.2 351.383 475C351.009 474.787 350.616 474.68 350.203 474.68C349.803 474.68 349.416 474.787 349.043 475C348.669 475.2 348.363 475.507 348.123 475.92C347.883 476.333 347.763 476.84 347.763 477.44C347.763 478.04 347.883 478.547 348.123 478.96C348.363 479.36 348.669 479.667 349.043 479.88C349.416 480.08 349.803 480.18 350.203 480.18C350.603 480.18 350.989 480.08 351.363 479.88C351.749 479.667 352.056 479.353 352.283 478.94C352.523 478.527 352.643 478.02 352.643 477.42ZM369.557 471.84V483H366.137V481.48C365.79 481.973 365.317 482.373 364.717 482.68C364.13 482.973 363.477 483.12 362.757 483.12C361.904 483.12 361.15 482.933 360.497 482.56C359.844 482.173 359.337 481.62 358.977 480.9C358.617 480.18 358.437 479.333 358.437 478.36V471.84H361.837V477.9C361.837 478.647 362.03 479.227 362.417 479.64C362.804 480.053 363.324 480.26 363.977 480.26C364.644 480.26 365.17 480.053 365.557 479.64C365.944 479.227 366.137 478.647 366.137 477.9V471.84H369.557ZM382.533 477.24C382.533 477.56 382.513 477.893 382.473 478.24H374.733C374.787 478.933 375.007 479.467 375.393 479.84C375.793 480.2 376.28 480.38 376.853 480.38C377.707 480.38 378.3 480.02 378.633 479.3H382.273C382.087 480.033 381.747 480.693 381.253 481.28C380.773 481.867 380.167 482.327 379.433 482.66C378.7 482.993 377.88 483.16 376.973 483.16C375.88 483.16 374.907 482.927 374.053 482.46C373.2 481.993 372.533 481.327 372.053 480.46C371.573 479.593 371.333 478.58 371.333 477.42C371.333 476.26 371.567 475.247 372.033 474.38C372.513 473.513 373.18 472.847 374.033 472.38C374.887 471.913 375.867 471.68 376.973 471.68C378.053 471.68 379.013 471.907 379.853 472.36C380.693 472.813 381.347 473.46 381.813 474.3C382.293 475.14 382.533 476.12 382.533 477.24ZM379.033 476.34C379.033 475.753 378.833 475.287 378.433 474.94C378.033 474.593 377.533 474.42 376.933 474.42C376.36 474.42 375.873 474.587 375.473 474.92C375.087 475.253 374.847 475.727 374.753 476.34H379.033ZM388.878 483.16C387.904 483.16 387.038 482.993 386.278 482.66C385.518 482.327 384.918 481.873 384.478 481.3C384.038 480.713 383.791 480.06 383.738 479.34H387.118C387.158 479.727 387.338 480.04 387.658 480.28C387.978 480.52 388.371 480.64 388.838 480.64C389.264 480.64 389.591 480.56 389.818 480.4C390.058 480.227 390.178 480.007 390.178 479.74C390.178 479.42 390.011 479.187 389.678 479.04C389.344 478.88 388.804 478.707 388.058 478.52C387.258 478.333 386.591 478.14 386.058 477.94C385.524 477.727 385.064 477.4 384.678 476.96C384.291 476.507 384.098 475.9 384.098 475.14C384.098 474.5 384.271 473.92 384.618 473.4C384.978 472.867 385.498 472.447 386.178 472.14C386.871 471.833 387.691 471.68 388.638 471.68C390.038 471.68 391.138 472.027 391.938 472.72C392.751 473.413 393.218 474.333 393.338 475.48H390.178C390.124 475.093 389.951 474.787 389.658 474.56C389.378 474.333 389.004 474.22 388.538 474.22C388.138 474.22 387.831 474.3 387.618 474.46C387.404 474.607 387.298 474.813 387.298 475.08C387.298 475.4 387.464 475.64 387.798 475.8C388.144 475.96 388.678 476.12 389.398 476.28C390.224 476.493 390.898 476.707 391.418 476.92C391.938 477.12 392.391 477.453 392.778 477.92C393.178 478.373 393.384 478.987 393.398 479.76C393.398 480.413 393.211 481 392.838 481.52C392.478 482.027 391.951 482.427 391.258 482.72C390.578 483.013 389.784 483.16 388.878 483.16ZM401.71 480.1V483H399.97C398.73 483 397.763 482.7 397.07 482.1C396.377 481.487 396.03 480.493 396.03 479.12V474.68H394.67V471.84H396.03V469.12H399.45V471.84H401.69V474.68H399.45V479.16C399.45 479.493 399.53 479.733 399.69 479.88C399.85 480.027 400.117 480.1 400.49 480.1H401.71ZM411.273 471.7V474.54H415.853V477.18H411.273V480.26H416.453V483H407.853V468.96H416.453V471.7H411.273ZM422.094 473.7C422.494 473.087 422.994 472.607 423.594 472.26C424.194 471.9 424.86 471.72 425.594 471.72V475.34H424.654C423.8 475.34 423.16 475.527 422.734 475.9C422.307 476.26 422.094 476.9 422.094 477.82V483H418.674V471.84H422.094V473.7ZM430.648 473.7C431.048 473.087 431.548 472.607 432.148 472.26C432.748 471.9 433.415 471.72 434.148 471.72V475.34H433.208C432.355 475.34 431.715 475.527 431.288 475.9C430.862 476.26 430.648 476.9 430.648 477.82V483H427.228V471.84H430.648V473.7ZM440.863 483.16C439.77 483.16 438.783 482.927 437.903 482.46C437.036 481.993 436.35 481.327 435.843 480.46C435.35 479.593 435.103 478.58 435.103 477.42C435.103 476.273 435.356 475.267 435.863 474.4C436.37 473.52 437.063 472.847 437.943 472.38C438.823 471.913 439.81 471.68 440.903 471.68C441.996 471.68 442.983 471.913 443.863 472.38C444.743 472.847 445.436 473.52 445.943 474.4C446.45 475.267 446.703 476.273 446.703 477.42C446.703 478.567 446.443 479.58 445.923 480.46C445.416 481.327 444.716 481.993 443.823 482.46C442.943 482.927 441.956 483.16 440.863 483.16ZM440.863 480.2C441.516 480.2 442.07 479.96 442.523 479.48C442.99 479 443.223 478.313 443.223 477.42C443.223 476.527 442.996 475.84 442.543 475.36C442.103 474.88 441.556 474.64 440.903 474.64C440.236 474.64 439.683 474.88 439.243 475.36C438.803 475.827 438.583 476.513 438.583 477.42C438.583 478.313 438.796 479 439.223 479.48C439.663 479.96 440.21 480.2 440.863 480.2ZM451.937 473.7C452.337 473.087 452.837 472.607 453.437 472.26C454.037 471.9 454.704 471.72 455.437 471.72V475.34H454.497C453.644 475.34 453.004 475.527 452.577 475.9C452.151 476.26 451.937 476.9 451.937 477.82V483H448.517V471.84H451.937V473.7ZM461.572 468.46L461.172 478.04H458.272L457.872 468.46H461.572ZM459.772 483.16C459.172 483.16 458.679 482.987 458.292 482.64C457.919 482.28 457.732 481.84 457.732 481.32C457.732 480.787 457.919 480.34 458.292 479.98C458.679 479.62 459.172 479.44 459.772 479.44C460.359 479.44 460.839 479.62 461.212 479.98C461.599 480.34 461.792 480.787 461.792 481.32C461.792 481.84 461.599 482.28 461.212 482.64C460.839 482.987 460.359 483.16 459.772 483.16Z" fill="white"/>
<path opacity="0.7" d="M125.161 505.454L121.075 513.266V518H119.437V513.266L115.333 505.454H117.151L120.247 511.808L123.343 505.454H125.161ZM131.191 518.162C130.267 518.162 129.427 517.952 128.671 517.532C127.927 517.112 127.339 516.518 126.907 515.75C126.487 514.97 126.277 514.07 126.277 513.05C126.277 512.042 126.493 511.154 126.925 510.386C127.369 509.606 127.969 509.012 128.725 508.604C129.481 508.184 130.327 507.974 131.263 507.974C132.199 507.974 133.045 508.184 133.801 508.604C134.557 509.012 135.151 509.6 135.583 510.368C136.027 511.136 136.249 512.03 136.249 513.05C136.249 514.07 136.021 514.97 135.565 515.75C135.121 516.518 134.515 517.112 133.747 517.532C132.979 517.952 132.127 518.162 131.191 518.162ZM131.191 516.722C131.779 516.722 132.331 516.584 132.847 516.308C133.363 516.032 133.777 515.618 134.089 515.066C134.413 514.514 134.575 513.842 134.575 513.05C134.575 512.258 134.419 511.586 134.107 511.034C133.795 510.482 133.387 510.074 132.883 509.81C132.379 509.534 131.833 509.396 131.245 509.396C130.645 509.396 130.093 509.534 129.589 509.81C129.097 510.074 128.701 510.482 128.401 511.034C128.101 511.586 127.951 512.258 127.951 513.05C127.951 513.854 128.095 514.532 128.383 515.084C128.683 515.636 129.079 516.05 129.571 516.326C130.063 516.59 130.603 516.722 131.191 516.722ZM147.151 508.136V518H145.513V516.542C145.201 517.046 144.763 517.442 144.199 517.73C143.647 518.006 143.035 518.144 142.363 518.144C141.595 518.144 140.905 517.988 140.293 517.676C139.681 517.352 139.195 516.872 138.835 516.236C138.487 515.6 138.313 514.826 138.313 513.914V508.136H139.933V513.698C139.933 514.67 140.179 515.42 140.671 515.948C141.163 516.464 141.835 516.722 142.687 516.722C143.563 516.722 144.253 516.452 144.757 515.912C145.261 515.372 145.513 514.586 145.513 513.554V508.136H147.151ZM151.554 509.738C151.842 509.174 152.25 508.736 152.778 508.424C153.318 508.112 153.972 507.956 154.74 507.956V509.648H154.308C152.472 509.648 151.554 510.644 151.554 512.636V518H149.916V508.136H151.554V509.738ZM174.57 508.136L171.492 518H169.8L167.424 510.17L165.048 518H163.356L160.26 508.136H161.934L164.202 516.416L166.65 508.136H168.324L170.718 516.434L172.95 508.136H174.57ZM175.584 513.032C175.584 512.024 175.788 511.142 176.196 510.386C176.604 509.618 177.162 509.024 177.87 508.604C178.59 508.184 179.388 507.974 180.264 507.974C181.128 507.974 181.878 508.16 182.514 508.532C183.15 508.904 183.624 509.372 183.936 509.936V508.136H185.592V518H183.936V516.164C183.612 516.74 183.126 517.22 182.478 517.604C181.842 517.976 181.098 518.162 180.246 518.162C179.37 518.162 178.578 517.946 177.87 517.514C177.162 517.082 176.604 516.476 176.196 515.696C175.788 514.916 175.584 514.028 175.584 513.032ZM183.936 513.05C183.936 512.306 183.786 511.658 183.486 511.106C183.186 510.554 182.778 510.134 182.262 509.846C181.758 509.546 181.2 509.396 180.588 509.396C179.976 509.396 179.418 509.54 178.914 509.828C178.41 510.116 178.008 510.536 177.708 511.088C177.408 511.64 177.258 512.288 177.258 513.032C177.258 513.788 177.408 514.448 177.708 515.012C178.008 515.564 178.41 515.99 178.914 516.29C179.418 516.578 179.976 516.722 180.588 516.722C181.2 516.722 181.758 516.578 182.262 516.29C182.778 515.99 183.186 515.564 183.486 515.012C183.786 514.448 183.936 513.794 183.936 513.05ZM189.998 504.68V518H188.36V504.68H189.998ZM194.427 504.68V518H192.789V504.68H194.427ZM206.219 512.69C206.219 513.002 206.201 513.332 206.165 513.68H198.281C198.341 514.652 198.671 515.414 199.271 515.966C199.883 516.506 200.621 516.776 201.485 516.776C202.193 516.776 202.781 516.614 203.249 516.29C203.729 515.954 204.065 515.51 204.257 514.958H206.021C205.757 515.906 205.229 516.68 204.437 517.28C203.645 517.868 202.661 518.162 201.485 518.162C200.549 518.162 199.709 517.952 198.965 517.532C198.233 517.112 197.657 516.518 197.237 515.75C196.817 514.97 196.607 514.07 196.607 513.05C196.607 512.03 196.811 511.136 197.219 510.368C197.627 509.6 198.197 509.012 198.929 508.604C199.673 508.184 200.525 507.974 201.485 507.974C202.421 507.974 203.249 508.178 203.969 508.586C204.689 508.994 205.241 509.558 205.625 510.278C206.021 510.986 206.219 511.79 206.219 512.69ZM204.527 512.348C204.527 511.724 204.389 511.19 204.113 510.746C203.837 510.29 203.459 509.948 202.979 509.72C202.511 509.48 201.989 509.36 201.413 509.36C200.585 509.36 199.877 509.624 199.289 510.152C198.713 510.68 198.383 511.412 198.299 512.348H204.527ZM210.379 509.486V515.3C210.379 515.78 210.481 516.122 210.685 516.326C210.889 516.518 211.243 516.614 211.747 516.614H212.953V518H211.477C210.565 518 209.881 517.79 209.425 517.37C208.969 516.95 208.741 516.26 208.741 515.3V509.486H207.463V508.136H208.741V505.652H210.379V508.136H212.953V509.486H210.379ZM221.375 505.454V518H219.737V505.454H221.375ZM228.072 505.454C229.44 505.454 230.622 505.712 231.618 506.228C232.626 506.732 233.394 507.458 233.922 508.406C234.462 509.354 234.732 510.47 234.732 511.754C234.732 513.038 234.462 514.154 233.922 515.102C233.394 516.038 232.626 516.758 231.618 517.262C230.622 517.754 229.44 518 228.072 518H224.166V505.454H228.072ZM228.072 516.65C229.692 516.65 230.928 516.224 231.78 515.372C232.632 514.508 233.058 513.302 233.058 511.754C233.058 510.194 232.626 508.976 231.762 508.1C230.91 507.224 229.68 506.786 228.072 506.786H225.804V516.65H228.072ZM241.422 511.358C241.422 509.294 241.758 507.686 242.43 506.534C243.102 505.37 244.278 504.788 245.958 504.788C247.626 504.788 248.796 505.37 249.468 506.534C250.14 507.686 250.476 509.294 250.476 511.358C250.476 513.458 250.14 515.09 249.468 516.254C248.796 517.418 247.626 518 245.958 518C244.278 518 243.102 517.418 242.43 516.254C241.758 515.09 241.422 513.458 241.422 511.358ZM248.856 511.358C248.856 510.314 248.784 509.432 248.64 508.712C248.508 507.98 248.226 507.392 247.794 506.948C247.374 506.504 246.762 506.282 245.958 506.282C245.142 506.282 244.518 506.504 244.086 506.948C243.666 507.392 243.384 507.98 243.24 508.712C243.108 509.432 243.042 510.314 243.042 511.358C243.042 512.438 243.108 513.344 243.24 514.076C243.384 514.808 243.666 515.396 244.086 515.84C244.518 516.284 245.142 516.506 245.958 516.506C246.762 516.506 247.374 516.284 247.794 515.84C248.226 515.396 248.508 514.808 248.64 514.076C248.784 513.344 248.856 512.438 248.856 511.358ZM258.142 518L255.802 514.328L253.552 518H251.842L255.028 513.104L251.842 508.136H253.696L256.036 511.79L258.268 508.136H259.978L256.81 513.014L259.996 518H258.142ZM263.246 509.972C263.582 509.384 264.074 508.904 264.722 508.532C265.37 508.16 266.108 507.974 266.936 507.974C267.824 507.974 268.622 508.184 269.33 508.604C270.038 509.024 270.596 509.618 271.004 510.386C271.412 511.142 271.616 512.024 271.616 513.032C271.616 514.028 271.412 514.916 271.004 515.696C270.596 516.476 270.032 517.082 269.312 517.514C268.604 517.946 267.812 518.162 266.936 518.162C266.084 518.162 265.334 517.976 264.686 517.604C264.05 517.232 263.57 516.758 263.246 516.182V518H261.608V504.68H263.246V509.972ZM269.942 513.032C269.942 512.288 269.792 511.64 269.492 511.088C269.192 510.536 268.784 510.116 268.268 509.828C267.764 509.54 267.206 509.396 266.594 509.396C265.994 509.396 265.436 509.546 264.92 509.846C264.416 510.134 264.008 510.56 263.696 511.124C263.396 511.676 263.246 512.318 263.246 513.05C263.246 513.794 263.396 514.448 263.696 515.012C264.008 515.564 264.416 515.99 264.92 516.29C265.436 516.578 265.994 516.722 266.594 516.722C267.206 516.722 267.764 516.578 268.268 516.29C268.784 515.99 269.192 515.564 269.492 515.012C269.792 514.448 269.942 513.788 269.942 513.032ZM282.772 512.69C282.772 513.002 282.754 513.332 282.718 513.68H274.834C274.894 514.652 275.224 515.414 275.824 515.966C276.436 516.506 277.174 516.776 278.038 516.776C278.746 516.776 279.334 516.614 279.802 516.29C280.282 515.954 280.618 515.51 280.81 514.958H282.574C282.31 515.906 281.782 516.68 280.99 517.28C280.198 517.868 279.214 518.162 278.038 518.162C277.102 518.162 276.262 517.952 275.518 517.532C274.786 517.112 274.21 516.518 273.79 515.75C273.37 514.97 273.16 514.07 273.16 513.05C273.16 512.03 273.364 511.136 273.772 510.368C274.18 509.6 274.75 509.012 275.482 508.604C276.226 508.184 277.078 507.974 278.038 507.974C278.974 507.974 279.802 508.178 280.522 508.586C281.242 508.994 281.794 509.558 282.178 510.278C282.574 510.986 282.772 511.79 282.772 512.69ZM281.08 512.348C281.08 511.724 280.942 511.19 280.666 510.746C280.39 510.29 280.012 509.948 279.532 509.72C279.064 509.48 278.542 509.36 277.966 509.36C277.138 509.36 276.43 509.624 275.842 510.152C275.266 510.68 274.936 511.412 274.852 512.348H281.08ZM284.268 515.102V513.86L290.586 505.112H292.548V513.68H294.348V515.102H292.548V518H290.928V515.102H284.268ZM291 506.822L286.158 513.68H291V506.822ZM298.36 511.232C297.688 510.968 297.172 510.584 296.812 510.08C296.452 509.576 296.272 508.964 296.272 508.244C296.272 507.596 296.434 507.014 296.758 506.498C297.082 505.97 297.562 505.556 298.198 505.256C298.846 504.944 299.626 504.788 300.538 504.788C301.45 504.788 302.224 504.944 302.86 505.256C303.508 505.556 303.994 505.97 304.318 506.498C304.654 507.014 304.822 507.596 304.822 508.244C304.822 508.94 304.636 509.552 304.264 510.08C303.892 510.596 303.382 510.98 302.734 511.232C303.478 511.46 304.066 511.862 304.498 512.438C304.942 513.002 305.164 513.686 305.164 514.49C305.164 515.27 304.972 515.954 304.588 516.542C304.204 517.118 303.658 517.568 302.95 517.892C302.254 518.204 301.45 518.36 300.538 518.36C299.626 518.36 298.822 518.204 298.126 517.892C297.442 517.568 296.908 517.118 296.524 516.542C296.14 515.954 295.948 515.27 295.948 514.49C295.948 513.686 296.164 512.996 296.596 512.42C297.028 511.844 297.616 511.448 298.36 511.232ZM303.238 508.442C303.238 507.71 302.998 507.146 302.518 506.75C302.038 506.354 301.378 506.156 300.538 506.156C299.71 506.156 299.056 506.354 298.576 506.75C298.096 507.146 297.856 507.716 297.856 508.46C297.856 509.132 298.102 509.672 298.594 510.08C299.098 510.488 299.746 510.692 300.538 510.692C301.342 510.692 301.99 510.488 302.482 510.08C302.986 509.66 303.238 509.114 303.238 508.442ZM300.538 511.952C299.65 511.952 298.924 512.162 298.36 512.582C297.796 512.99 297.514 513.608 297.514 514.436C297.514 515.204 297.784 515.822 298.324 516.29C298.876 516.758 299.614 516.992 300.538 516.992C301.462 516.992 302.194 516.758 302.734 516.29C303.274 515.822 303.544 515.204 303.544 514.436C303.544 513.632 303.268 513.02 302.716 512.6C302.164 512.168 301.438 511.952 300.538 511.952ZM314.594 508.082C314.33 506.75 313.508 506.084 312.128 506.084C311.06 506.084 310.262 506.498 309.734 507.326C309.206 508.142 308.948 509.492 308.96 511.376C309.236 510.752 309.692 510.266 310.328 509.918C310.976 509.558 311.696 509.378 312.488 509.378C313.724 509.378 314.708 509.762 315.44 510.53C316.184 511.298 316.556 512.36 316.556 513.716C316.556 514.532 316.394 515.264 316.07 515.912C315.758 516.56 315.278 517.076 314.63 517.46C313.994 517.844 313.22 518.036 312.308 518.036C311.072 518.036 310.106 517.76 309.41 517.208C308.714 516.656 308.228 515.894 307.952 514.922C307.676 513.95 307.538 512.75 307.538 511.322C307.538 506.918 309.074 504.716 312.146 504.716C313.322 504.716 314.246 505.034 314.918 505.67C315.59 506.306 315.986 507.11 316.106 508.082H314.594ZM312.146 510.764C311.63 510.764 311.144 510.872 310.688 511.088C310.232 511.292 309.86 511.61 309.572 512.042C309.296 512.462 309.158 512.978 309.158 513.59C309.158 514.502 309.422 515.246 309.95 515.822C310.478 516.386 311.234 516.668 312.218 516.668C313.058 516.668 313.724 516.41 314.216 515.894C314.72 515.366 314.972 514.658 314.972 513.77C314.972 512.834 314.732 512.102 314.252 511.574C313.772 511.034 313.07 510.764 312.146 510.764ZM321.141 511.232C320.469 510.968 319.953 510.584 319.593 510.08C319.233 509.576 319.053 508.964 319.053 508.244C319.053 507.596 319.215 507.014 319.539 506.498C319.863 505.97 320.343 505.556 320.979 505.256C321.627 504.944 322.407 504.788 323.319 504.788C324.231 504.788 325.005 504.944 325.641 505.256C326.289 505.556 326.775 505.97 327.099 506.498C327.435 507.014 327.603 507.596 327.603 508.244C327.603 508.94 327.417 509.552 327.045 510.08C326.673 510.596 326.163 510.98 325.515 511.232C326.259 511.46 326.847 511.862 327.279 512.438C327.723 513.002 327.945 513.686 327.945 514.49C327.945 515.27 327.753 515.954 327.369 516.542C326.985 517.118 326.439 517.568 325.731 517.892C325.035 518.204 324.231 518.36 323.319 518.36C322.407 518.36 321.603 518.204 320.907 517.892C320.223 517.568 319.689 517.118 319.305 516.542C318.921 515.954 318.729 515.27 318.729 514.49C318.729 513.686 318.945 512.996 319.377 512.42C319.809 511.844 320.397 511.448 321.141 511.232ZM326.019 508.442C326.019 507.71 325.779 507.146 325.299 506.75C324.819 506.354 324.159 506.156 323.319 506.156C322.491 506.156 321.837 506.354 321.357 506.75C320.877 507.146 320.637 507.716 320.637 508.46C320.637 509.132 320.883 509.672 321.375 510.08C321.879 510.488 322.527 510.692 323.319 510.692C324.123 510.692 324.771 510.488 325.263 510.08C325.767 509.66 326.019 509.114 326.019 508.442ZM323.319 511.952C322.431 511.952 321.705 512.162 321.141 512.582C320.577 512.99 320.295 513.608 320.295 514.436C320.295 515.204 320.565 515.822 321.105 516.29C321.657 516.758 322.395 516.992 323.319 516.992C324.243 516.992 324.975 516.758 325.515 516.29C326.055 515.822 326.325 515.204 326.325 514.436C326.325 513.632 326.049 513.02 325.497 512.6C324.945 512.168 324.219 511.952 323.319 511.952ZM339.391 512.69C339.391 513.002 339.373 513.332 339.337 513.68H331.453C331.513 514.652 331.843 515.414 332.443 515.966C333.055 516.506 333.793 516.776 334.657 516.776C335.365 516.776 335.953 516.614 336.421 516.29C336.901 515.954 337.237 515.51 337.429 514.958H339.193C338.929 515.906 338.401 516.68 337.609 517.28C336.817 517.868 335.833 518.162 334.657 518.162C333.721 518.162 332.881 517.952 332.137 517.532C331.405 517.112 330.829 516.518 330.409 515.75C329.989 514.97 329.779 514.07 329.779 513.05C329.779 512.03 329.983 511.136 330.391 510.368C330.799 509.6 331.369 509.012 332.101 508.604C332.845 508.184 333.697 507.974 334.657 507.974C335.593 507.974 336.421 508.178 337.141 508.586C337.861 508.994 338.413 509.558 338.797 510.278C339.193 510.986 339.391 511.79 339.391 512.69ZM337.699 512.348C337.699 511.724 337.561 511.19 337.285 510.746C337.009 510.29 336.631 509.948 336.151 509.72C335.683 509.48 335.161 509.36 334.585 509.36C333.757 509.36 333.049 509.624 332.461 510.152C331.885 510.68 331.555 511.412 331.471 512.348H337.699ZM341.283 511.358C341.283 509.294 341.619 507.686 342.291 506.534C342.963 505.37 344.139 504.788 345.819 504.788C347.487 504.788 348.657 505.37 349.329 506.534C350.001 507.686 350.337 509.294 350.337 511.358C350.337 513.458 350.001 515.09 349.329 516.254C348.657 517.418 347.487 518 345.819 518C344.139 518 342.963 517.418 342.291 516.254C341.619 515.09 341.283 513.458 341.283 511.358ZM348.717 511.358C348.717 510.314 348.645 509.432 348.501 508.712C348.369 507.98 348.087 507.392 347.655 506.948C347.235 506.504 346.623 506.282 345.819 506.282C345.003 506.282 344.379 506.504 343.947 506.948C343.527 507.392 343.245 507.98 343.101 508.712C342.969 509.432 342.903 510.314 342.903 511.358C342.903 512.438 342.969 513.344 343.101 514.076C343.245 514.808 343.527 515.396 343.947 515.84C344.379 516.284 345.003 516.506 345.819 516.506C346.623 516.506 347.235 516.284 347.655 515.84C348.087 515.396 348.369 514.808 348.501 514.076C348.645 513.344 348.717 512.438 348.717 511.358ZM352.55 508.262C352.634 507.158 353.06 506.294 353.828 505.67C354.596 505.046 355.592 504.734 356.816 504.734C357.632 504.734 358.334 504.884 358.922 505.184C359.522 505.472 359.972 505.868 360.272 506.372C360.584 506.876 360.74 507.446 360.74 508.082C360.74 508.826 360.524 509.468 360.092 510.008C359.672 510.548 359.12 510.896 358.436 511.052V511.142C359.216 511.334 359.834 511.712 360.29 512.276C360.746 512.84 360.974 513.578 360.974 514.49C360.974 515.174 360.818 515.792 360.506 516.344C360.194 516.884 359.726 517.31 359.102 517.622C358.478 517.934 357.728 518.09 356.852 518.09C355.58 518.09 354.536 517.76 353.72 517.1C352.904 516.428 352.448 515.48 352.352 514.256H353.936C354.02 514.976 354.314 515.564 354.818 516.02C355.322 516.476 355.994 516.704 356.834 516.704C357.674 516.704 358.31 516.488 358.742 516.056C359.186 515.612 359.408 515.042 359.408 514.346C359.408 513.446 359.108 512.798 358.508 512.402C357.908 512.006 357.002 511.808 355.79 511.808H355.376V510.44H355.808C356.912 510.428 357.746 510.248 358.31 509.9C358.874 509.54 359.156 508.988 359.156 508.244C359.156 507.608 358.946 507.098 358.526 506.714C358.118 506.33 357.53 506.138 356.762 506.138C356.018 506.138 355.418 506.33 354.962 506.714C354.506 507.098 354.236 507.614 354.152 508.262H352.55ZM362.843 513.05C362.843 512.03 363.047 511.142 363.455 510.386C363.863 509.618 364.427 509.024 365.147 508.604C365.879 508.184 366.713 507.974 367.649 507.974C368.861 507.974 369.857 508.268 370.637 508.856C371.429 509.444 371.951 510.26 372.203 511.304H370.439C370.271 510.704 369.941 510.23 369.449 509.882C368.969 509.534 368.369 509.36 367.649 509.36C366.713 509.36 365.957 509.684 365.381 510.332C364.805 510.968 364.517 511.874 364.517 513.05C364.517 514.238 364.805 515.156 365.381 515.804C365.957 516.452 366.713 516.776 367.649 516.776C368.369 516.776 368.969 516.608 369.449 516.272C369.929 515.936 370.259 515.456 370.439 514.832H372.203C371.939 515.84 371.411 516.65 370.619 517.262C369.827 517.862 368.837 518.162 367.649 518.162C366.713 518.162 365.879 517.952 365.147 517.532C364.427 517.112 363.863 516.518 363.455 515.75C363.047 514.982 362.843 514.082 362.843 513.05ZM381.373 508.082C381.109 506.75 380.287 506.084 378.907 506.084C377.839 506.084 377.041 506.498 376.513 507.326C375.985 508.142 375.727 509.492 375.739 511.376C376.015 510.752 376.471 510.266 377.107 509.918C377.755 509.558 378.475 509.378 379.267 509.378C380.503 509.378 381.487 509.762 382.219 510.53C382.963 511.298 383.335 512.36 383.335 513.716C383.335 514.532 383.173 515.264 382.849 515.912C382.537 516.56 382.057 517.076 381.409 517.46C380.773 517.844 379.999 518.036 379.087 518.036C377.851 518.036 376.885 517.76 376.189 517.208C375.493 516.656 375.007 515.894 374.731 514.922C374.455 513.95 374.317 512.75 374.317 511.322C374.317 506.918 375.853 504.716 378.925 504.716C380.101 504.716 381.025 505.034 381.697 505.67C382.369 506.306 382.765 507.11 382.885 508.082H381.373ZM378.925 510.764C378.409 510.764 377.923 510.872 377.467 511.088C377.011 511.292 376.639 511.61 376.351 512.042C376.075 512.462 375.937 512.978 375.937 513.59C375.937 514.502 376.201 515.246 376.729 515.822C377.257 516.386 378.013 516.668 378.997 516.668C379.837 516.668 380.503 516.41 380.995 515.894C381.499 515.366 381.751 514.658 381.751 513.77C381.751 512.834 381.511 512.102 381.031 511.574C380.551 511.034 379.849 510.764 378.925 510.764ZM387.453 509.972C387.789 509.384 388.281 508.904 388.929 508.532C389.577 508.16 390.315 507.974 391.143 507.974C392.031 507.974 392.829 508.184 393.537 508.604C394.245 509.024 394.803 509.618 395.211 510.386C395.619 511.142 395.823 512.024 395.823 513.032C395.823 514.028 395.619 514.916 395.211 515.696C394.803 516.476 394.239 517.082 393.519 517.514C392.811 517.946 392.019 518.162 391.143 518.162C390.291 518.162 389.541 517.976 388.893 517.604C388.257 517.232 387.777 516.758 387.453 516.182V518H385.815V504.68H387.453V509.972ZM394.149 513.032C394.149 512.288 393.999 511.64 393.699 511.088C393.399 510.536 392.991 510.116 392.475 509.828C391.971 509.54 391.413 509.396 390.801 509.396C390.201 509.396 389.643 509.546 389.127 509.846C388.623 510.134 388.215 510.56 387.903 511.124C387.603 511.676 387.453 512.318 387.453 513.05C387.453 513.794 387.603 514.448 387.903 515.012C388.215 515.564 388.623 515.99 389.127 516.29C389.643 516.578 390.201 516.722 390.801 516.722C391.413 516.722 391.971 516.578 392.475 516.29C392.991 515.99 393.399 515.564 393.699 515.012C393.999 514.448 394.149 513.788 394.149 513.032ZM400.085 511.232C399.413 510.968 398.897 510.584 398.537 510.08C398.177 509.576 397.997 508.964 397.997 508.244C397.997 507.596 398.159 507.014 398.483 506.498C398.807 505.97 399.287 505.556 399.923 505.256C400.571 504.944 401.351 504.788 402.263 504.788C403.175 504.788 403.949 504.944 404.585 505.256C405.233 505.556 405.719 505.97 406.043 506.498C406.379 507.014 406.547 507.596 406.547 508.244C406.547 508.94 406.361 509.552 405.989 510.08C405.617 510.596 405.107 510.98 404.459 511.232C405.203 511.46 405.791 511.862 406.223 512.438C406.667 513.002 406.889 513.686 406.889 514.49C406.889 515.27 406.697 515.954 406.313 516.542C405.929 517.118 405.383 517.568 404.675 517.892C403.979 518.204 403.175 518.36 402.263 518.36C401.351 518.36 400.547 518.204 399.851 517.892C399.167 517.568 398.633 517.118 398.249 516.542C397.865 515.954 397.673 515.27 397.673 514.49C397.673 513.686 397.889 512.996 398.321 512.42C398.753 511.844 399.341 511.448 400.085 511.232ZM404.963 508.442C404.963 507.71 404.723 507.146 404.243 506.75C403.763 506.354 403.103 506.156 402.263 506.156C401.435 506.156 400.781 506.354 400.301 506.75C399.821 507.146 399.581 507.716 399.581 508.46C399.581 509.132 399.827 509.672 400.319 510.08C400.823 510.488 401.471 510.692 402.263 510.692C403.067 510.692 403.715 510.488 404.207 510.08C404.711 509.66 404.963 509.114 404.963 508.442ZM402.263 511.952C401.375 511.952 400.649 512.162 400.085 512.582C399.521 512.99 399.239 513.608 399.239 514.436C399.239 515.204 399.509 515.822 400.049 516.29C400.601 516.758 401.339 516.992 402.263 516.992C403.187 516.992 403.919 516.758 404.459 516.29C404.999 515.822 405.269 515.204 405.269 514.436C405.269 513.632 404.993 513.02 404.441 512.6C403.889 512.168 403.163 511.952 402.263 511.952ZM413.006 516.488L416.066 508.136H417.812L413.942 518H412.034L408.164 508.136H409.928L413.006 516.488ZM421.53 511.232C420.858 510.968 420.342 510.584 419.982 510.08C419.622 509.576 419.442 508.964 419.442 508.244C419.442 507.596 419.604 507.014 419.928 506.498C420.252 505.97 420.732 505.556 421.368 505.256C422.016 504.944 422.796 504.788 423.708 504.788C424.62 504.788 425.394 504.944 426.03 505.256C426.678 505.556 427.164 505.97 427.488 506.498C427.824 507.014 427.992 507.596 427.992 508.244C427.992 508.94 427.806 509.552 427.434 510.08C427.062 510.596 426.552 510.98 425.904 511.232C426.648 511.46 427.236 511.862 427.668 512.438C428.112 513.002 428.334 513.686 428.334 514.49C428.334 515.27 428.142 515.954 427.758 516.542C427.374 517.118 426.828 517.568 426.12 517.892C425.424 518.204 424.62 518.36 423.708 518.36C422.796 518.36 421.992 518.204 421.296 517.892C420.612 517.568 420.078 517.118 419.694 516.542C419.31 515.954 419.118 515.27 419.118 514.49C419.118 513.686 419.334 512.996 419.766 512.42C420.198 511.844 420.786 511.448 421.53 511.232ZM426.408 508.442C426.408 507.71 426.168 507.146 425.688 506.75C425.208 506.354 424.548 506.156 423.708 506.156C422.88 506.156 422.226 506.354 421.746 506.75C421.266 507.146 421.026 507.716 421.026 508.46C421.026 509.132 421.272 509.672 421.764 510.08C422.268 510.488 422.916 510.692 423.708 510.692C424.512 510.692 425.16 510.488 425.652 510.08C426.156 509.66 426.408 509.114 426.408 508.442ZM423.708 511.952C422.82 511.952 422.094 512.162 421.53 512.582C420.966 512.99 420.684 513.608 420.684 514.436C420.684 515.204 420.954 515.822 421.494 516.29C422.046 516.758 422.784 516.992 423.708 516.992C424.632 516.992 425.364 516.758 425.904 516.29C426.444 515.822 426.714 515.204 426.714 514.436C426.714 513.632 426.438 513.02 425.886 512.6C425.334 512.168 424.608 511.952 423.708 511.952ZM435.928 518L433.588 514.328L431.338 518H429.628L432.814 513.104L429.628 508.136H431.482L433.822 511.79L436.054 508.136H437.764L434.596 513.014L437.782 518H435.928ZM447.421 506.408H441.103V510.512C441.379 510.128 441.787 509.816 442.327 509.576C442.867 509.324 443.449 509.198 444.073 509.198C445.069 509.198 445.879 509.408 446.503 509.828C447.127 510.236 447.571 510.77 447.835 511.43C448.111 512.078 448.249 512.768 448.249 513.5C448.249 514.364 448.087 515.138 447.763 515.822C447.439 516.506 446.941 517.046 446.269 517.442C445.609 517.838 444.787 518.036 443.803 518.036C442.543 518.036 441.523 517.712 440.743 517.064C439.963 516.416 439.489 515.552 439.321 514.472H440.923C441.079 515.156 441.409 515.69 441.913 516.074C442.417 516.458 443.053 516.65 443.821 516.65C444.769 516.65 445.483 516.368 445.963 515.804C446.443 515.228 446.683 514.472 446.683 513.536C446.683 512.6 446.443 511.88 445.963 511.376C445.483 510.86 444.775 510.602 443.839 510.602C443.203 510.602 442.645 510.758 442.165 511.07C441.697 511.37 441.355 511.784 441.139 512.312H439.591V504.968H447.421V506.408ZM450.084 513.032C450.084 512.024 450.288 511.142 450.696 510.386C451.104 509.618 451.662 509.024 452.37 508.604C453.09 508.184 453.894 507.974 454.782 507.974C455.55 507.974 456.264 508.154 456.924 508.514C457.584 508.862 458.088 509.324 458.436 509.9V504.68H460.092V518H458.436V516.146C458.112 516.734 457.632 517.22 456.996 517.604C456.36 517.976 455.616 518.162 454.764 518.162C453.888 518.162 453.09 517.946 452.37 517.514C451.662 517.082 451.104 516.476 450.696 515.696C450.288 514.916 450.084 514.028 450.084 513.032ZM458.436 513.05C458.436 512.306 458.286 511.658 457.986 511.106C457.686 510.554 457.278 510.134 456.762 509.846C456.258 509.546 455.7 509.396 455.088 509.396C454.476 509.396 453.918 509.54 453.414 509.828C452.91 510.116 452.508 510.536 452.208 511.088C451.908 511.64 451.758 512.288 451.758 513.032C451.758 513.788 451.908 514.448 452.208 515.012C452.508 515.564 452.91 515.99 453.414 516.29C453.918 516.578 454.476 516.722 455.088 516.722C455.7 516.722 456.258 516.578 456.762 516.29C457.278 515.99 457.686 515.564 457.986 515.012C458.286 514.448 458.436 513.794 458.436 513.05ZM462.194 515.102V513.86L468.512 505.112H470.474V513.68H472.274V515.102H470.474V518H468.854V515.102H462.194ZM468.926 506.822L464.084 513.68H468.926V506.822ZM477.672 518.162C476.916 518.162 476.238 518.036 475.638 517.784C475.038 517.52 474.564 517.16 474.216 516.704C473.868 516.236 473.676 515.702 473.64 515.102H475.332C475.38 515.594 475.608 515.996 476.016 516.308C476.436 516.62 476.982 516.776 477.654 516.776C478.278 516.776 478.77 516.638 479.13 516.362C479.49 516.086 479.67 515.738 479.67 515.318C479.67 514.886 479.478 514.568 479.094 514.364C478.71 514.148 478.116 513.938 477.312 513.734C476.58 513.542 475.98 513.35 475.512 513.158C475.056 512.954 474.66 512.66 474.324 512.276C474 511.88 473.838 511.364 473.838 510.728C473.838 510.224 473.988 509.762 474.288 509.342C474.588 508.922 475.014 508.592 475.566 508.352C476.118 508.1 476.748 507.974 477.456 507.974C478.548 507.974 479.43 508.25 480.102 508.802C480.774 509.354 481.134 510.11 481.182 511.07H479.544C479.508 510.554 479.298 510.14 478.914 509.828C478.542 509.516 478.038 509.36 477.402 509.36C476.814 509.36 476.346 509.486 475.998 509.738C475.65 509.99 475.476 510.32 475.476 510.728C475.476 511.052 475.578 511.322 475.782 511.538C475.998 511.742 476.262 511.91 476.574 512.042C476.898 512.162 477.342 512.3 477.906 512.456C478.614 512.648 479.19 512.84 479.634 513.032C480.078 513.212 480.456 513.488 480.768 513.86C481.092 514.232 481.26 514.718 481.272 515.318C481.272 515.858 481.122 516.344 480.822 516.776C480.522 517.208 480.096 517.55 479.544 517.802C479.004 518.042 478.38 518.162 477.672 518.162ZM487.652 507.974C488.504 507.974 489.248 508.16 489.884 508.532C490.532 508.904 491.012 509.372 491.324 509.936V508.136H492.98V518.216C492.98 519.116 492.788 519.914 492.404 520.61C492.02 521.318 491.468 521.87 490.748 522.266C490.04 522.662 489.212 522.86 488.264 522.86C486.968 522.86 485.888 522.554 485.024 521.942C484.16 521.33 483.65 520.496 483.494 519.44H485.114C485.294 520.04 485.666 520.52 486.23 520.88C486.794 521.252 487.472 521.438 488.264 521.438C489.164 521.438 489.896 521.156 490.46 520.592C491.036 520.028 491.324 519.236 491.324 518.216V516.146C491 516.722 490.52 517.202 489.884 517.586C489.248 517.97 488.504 518.162 487.652 518.162C486.776 518.162 485.978 517.946 485.258 517.514C484.55 517.082 483.992 516.476 483.584 515.696C483.176 514.916 482.972 514.028 482.972 513.032C482.972 512.024 483.176 511.142 483.584 510.386C483.992 509.618 484.55 509.024 485.258 508.604C485.978 508.184 486.776 507.974 487.652 507.974ZM491.324 513.05C491.324 512.306 491.174 511.658 490.874 511.106C490.574 510.554 490.166 510.134 489.65 509.846C489.146 509.546 488.588 509.396 487.976 509.396C487.364 509.396 486.806 509.54 486.302 509.828C485.798 510.116 485.396 510.536 485.096 511.088C484.796 511.64 484.646 512.288 484.646 513.032C484.646 513.788 484.796 514.448 485.096 515.012C485.396 515.564 485.798 515.99 486.302 516.29C486.806 516.578 487.364 516.722 487.976 516.722C488.588 516.722 489.146 516.578 489.65 516.29C490.166 515.99 490.574 515.564 490.874 515.012C491.174 514.448 491.324 513.794 491.324 513.05ZM499.816 507.974C500.668 507.974 501.412 508.16 502.048 508.532C502.696 508.904 503.176 509.372 503.488 509.936V508.136H505.144V518.216C505.144 519.116 504.952 519.914 504.568 520.61C504.184 521.318 503.632 521.87 502.912 522.266C502.204 522.662 501.376 522.86 500.428 522.86C499.132 522.86 498.052 522.554 497.188 521.942C496.324 521.33 495.814 520.496 495.658 519.44H497.278C497.458 520.04 497.83 520.52 498.394 520.88C498.958 521.252 499.636 521.438 500.428 521.438C501.328 521.438 502.06 521.156 502.624 520.592C503.2 520.028 503.488 519.236 503.488 518.216V516.146C503.164 516.722 502.684 517.202 502.048 517.586C501.412 517.97 500.668 518.162 499.816 518.162C498.94 518.162 498.142 517.946 497.422 517.514C496.714 517.082 496.156 516.476 495.748 515.696C495.34 514.916 495.136 514.028 495.136 513.032C495.136 512.024 495.34 511.142 495.748 510.386C496.156 509.618 496.714 509.024 497.422 508.604C498.142 508.184 498.94 507.974 499.816 507.974ZM503.488 513.05C503.488 512.306 503.338 511.658 503.038 511.106C502.738 510.554 502.33 510.134 501.814 509.846C501.31 509.546 500.752 509.396 500.14 509.396C499.528 509.396 498.97 509.54 498.466 509.828C497.962 510.116 497.56 510.536 497.26 511.088C496.96 511.64 496.81 512.288 496.81 513.032C496.81 513.788 496.96 514.448 497.26 515.012C497.56 515.564 497.962 515.99 498.466 516.29C498.97 516.578 499.528 516.722 500.14 516.722C500.752 516.722 501.31 516.578 501.814 516.29C502.33 515.99 502.738 515.564 503.038 515.012C503.338 514.448 503.488 513.794 503.488 513.05ZM507.3 513.032C507.3 512.024 507.504 511.142 507.912 510.386C508.32 509.618 508.878 509.024 509.586 508.604C510.306 508.184 511.11 507.974 511.998 507.974C512.766 507.974 513.48 508.154 514.14 508.514C514.8 508.862 515.304 509.324 515.652 509.9V504.68H517.308V518H515.652V516.146C515.328 516.734 514.848 517.22 514.212 517.604C513.576 517.976 512.832 518.162 511.98 518.162C511.104 518.162 510.306 517.946 509.586 517.514C508.878 517.082 508.32 516.476 507.912 515.696C507.504 514.916 507.3 514.028 507.3 513.032ZM515.652 513.05C515.652 512.306 515.502 511.658 515.202 511.106C514.902 510.554 514.494 510.134 513.978 509.846C513.474 509.546 512.916 509.396 512.304 509.396C511.692 509.396 511.134 509.54 510.63 509.828C510.126 510.116 509.724 510.536 509.424 511.088C509.124 511.64 508.974 512.288 508.974 513.032C508.974 513.788 509.124 514.448 509.424 515.012C509.724 515.564 510.126 515.99 510.63 516.29C511.134 516.578 511.692 516.722 512.304 516.722C512.916 516.722 513.474 516.578 513.978 516.29C514.494 515.99 514.902 515.564 515.202 515.012C515.502 514.448 515.652 513.794 515.652 513.05ZM524.144 507.974C524.996 507.974 525.74 508.16 526.376 508.532C527.024 508.904 527.504 509.372 527.816 509.936V508.136H529.472V518.216C529.472 519.116 529.28 519.914 528.896 520.61C528.512 521.318 527.96 521.87 527.24 522.266C526.532 522.662 525.704 522.86 524.756 522.86C523.46 522.86 522.38 522.554 521.516 521.942C520.652 521.33 520.142 520.496 519.986 519.44H521.606C521.786 520.04 522.158 520.52 522.722 520.88C523.286 521.252 523.964 521.438 524.756 521.438C525.656 521.438 526.388 521.156 526.952 520.592C527.528 520.028 527.816 519.236 527.816 518.216V516.146C527.492 516.722 527.012 517.202 526.376 517.586C525.74 517.97 524.996 518.162 524.144 518.162C523.268 518.162 522.47 517.946 521.75 517.514C521.042 517.082 520.484 516.476 520.076 515.696C519.668 514.916 519.464 514.028 519.464 513.032C519.464 512.024 519.668 511.142 520.076 510.386C520.484 509.618 521.042 509.024 521.75 508.604C522.47 508.184 523.268 507.974 524.144 507.974ZM527.816 513.05C527.816 512.306 527.666 511.658 527.366 511.106C527.066 510.554 526.658 510.134 526.142 509.846C525.638 509.546 525.08 509.396 524.468 509.396C523.856 509.396 523.298 509.54 522.794 509.828C522.29 510.116 521.888 510.536 521.588 511.088C521.288 511.64 521.138 512.288 521.138 513.032C521.138 513.788 521.288 514.448 521.588 515.012C521.888 515.564 522.29 515.99 522.794 516.29C523.298 516.578 523.856 516.722 524.468 516.722C525.08 516.722 525.638 516.578 526.142 516.29C526.658 515.99 527.066 515.564 527.366 515.012C527.666 514.448 527.816 513.794 527.816 513.05ZM531.772 516.686C533.296 515.462 534.49 514.46 535.354 513.68C536.218 512.888 536.944 512.066 537.532 511.214C538.132 510.35 538.432 509.504 538.432 508.676C538.432 507.896 538.24 507.284 537.856 506.84C537.484 506.384 536.878 506.156 536.038 506.156C535.222 506.156 534.586 506.414 534.13 506.93C533.686 507.434 533.446 508.112 533.41 508.964H531.826C531.874 507.62 532.282 506.582 533.05 505.85C533.818 505.118 534.808 504.752 536.02 504.752C537.256 504.752 538.234 505.094 538.954 505.778C539.686 506.462 540.052 507.404 540.052 508.604C540.052 509.6 539.752 510.572 539.152 511.52C538.564 512.456 537.892 513.284 537.136 514.004C536.38 514.712 535.414 515.54 534.238 516.488H540.43V517.856H531.772V516.686ZM542.288 508.262C542.372 507.158 542.798 506.294 543.566 505.67C544.334 505.046 545.33 504.734 546.554 504.734C547.37 504.734 548.072 504.884 548.66 505.184C549.26 505.472 549.71 505.868 550.01 506.372C550.322 506.876 550.478 507.446 550.478 508.082C550.478 508.826 550.262 509.468 549.83 510.008C549.41 510.548 548.858 510.896 548.174 511.052V511.142C548.954 511.334 549.572 511.712 550.028 512.276C550.484 512.84 550.712 513.578 550.712 514.49C550.712 515.174 550.556 515.792 550.244 516.344C549.932 516.884 549.464 517.31 548.84 517.622C548.216 517.934 547.466 518.09 546.59 518.09C545.318 518.09 544.274 517.76 543.458 517.1C542.642 516.428 542.186 515.48 542.09 514.256H543.674C543.758 514.976 544.052 515.564 544.556 516.02C545.06 516.476 545.732 516.704 546.572 516.704C547.412 516.704 548.048 516.488 548.48 516.056C548.924 515.612 549.146 515.042 549.146 514.346C549.146 513.446 548.846 512.798 548.246 512.402C547.646 512.006 546.74 511.808 545.528 511.808H545.114V510.44H545.546C546.65 510.428 547.484 510.248 548.048 509.9C548.612 509.54 548.894 508.988 548.894 508.244C548.894 507.608 548.684 507.098 548.264 506.714C547.856 506.33 547.268 506.138 546.5 506.138C545.756 506.138 545.156 506.33 544.7 506.714C544.244 507.098 543.974 507.614 543.89 508.262H542.288ZM552.528 515.102V513.86L558.846 505.112H560.808V513.68H562.608V515.102H560.808V518H559.188V515.102H552.528ZM559.26 506.822L554.418 513.68H559.26V506.822ZM574.209 507.956C574.953 507.956 575.625 508.118 576.225 508.442C576.825 508.754 577.293 509.228 577.629 509.864C577.977 510.5 578.151 511.274 578.151 512.186V518H576.531V512.42C576.531 511.436 576.285 510.686 575.793 510.17C575.301 509.642 574.629 509.378 573.777 509.378C572.913 509.378 572.223 509.648 571.707 510.188C571.203 510.728 570.951 511.514 570.951 512.546V518H569.313V504.68H570.951V509.54C571.275 509.036 571.719 508.646 572.283 508.37C572.859 508.094 573.501 507.956 574.209 507.956ZM580.214 513.032C580.214 512.024 580.418 511.142 580.826 510.386C581.234 509.618 581.792 509.024 582.5 508.604C583.22 508.184 584.018 507.974 584.894 507.974C585.758 507.974 586.508 508.16 587.144 508.532C587.78 508.904 588.254 509.372 588.566 509.936V508.136H590.222V518H588.566V516.164C588.242 516.74 587.756 517.22 587.108 517.604C586.472 517.976 585.728 518.162 584.876 518.162C584 518.162 583.208 517.946 582.5 517.514C581.792 517.082 581.234 516.476 580.826 515.696C580.418 514.916 580.214 514.028 580.214 513.032ZM588.566 513.05C588.566 512.306 588.416 511.658 588.116 511.106C587.816 510.554 587.408 510.134 586.892 509.846C586.388 509.546 585.83 509.396 585.218 509.396C584.606 509.396 584.048 509.54 583.544 509.828C583.04 510.116 582.638 510.536 582.338 511.088C582.038 511.64 581.888 512.288 581.888 513.032C581.888 513.788 582.038 514.448 582.338 515.012C582.638 515.564 583.04 515.99 583.544 516.29C584.048 516.578 584.606 516.722 585.218 516.722C585.83 516.722 586.388 516.578 586.892 516.29C587.408 515.99 587.816 515.564 588.116 515.012C588.416 514.448 588.566 513.794 588.566 513.05ZM596.482 518.162C595.726 518.162 595.048 518.036 594.448 517.784C593.848 517.52 593.374 517.16 593.026 516.704C592.678 516.236 592.486 515.702 592.45 515.102H594.142C594.19 515.594 594.418 515.996 594.826 516.308C595.246 516.62 595.792 516.776 596.464 516.776C597.088 516.776 597.58 516.638 597.94 516.362C598.3 516.086 598.48 515.738 598.48 515.318C598.48 514.886 598.288 514.568 597.904 514.364C597.52 514.148 596.926 513.938 596.122 513.734C595.39 513.542 594.79 513.35 594.322 513.158C593.866 512.954 593.47 512.66 593.134 512.276C592.81 511.88 592.648 511.364 592.648 510.728C592.648 510.224 592.798 509.762 593.098 509.342C593.398 508.922 593.824 508.592 594.376 508.352C594.928 508.1 595.558 507.974 596.266 507.974C597.358 507.974 598.24 508.25 598.912 508.802C599.584 509.354 599.944 510.11 599.992 511.07H598.354C598.318 510.554 598.108 510.14 597.724 509.828C597.352 509.516 596.848 509.36 596.212 509.36C595.624 509.36 595.156 509.486 594.808 509.738C594.46 509.99 594.286 510.32 594.286 510.728C594.286 511.052 594.388 511.322 594.592 511.538C594.808 511.742 595.072 511.91 595.384 512.042C595.708 512.162 596.152 512.3 596.716 512.456C597.424 512.648 598 512.84 598.444 513.032C598.888 513.212 599.266 513.488 599.578 513.86C599.902 514.232 600.07 514.718 600.082 515.318C600.082 515.858 599.932 516.344 599.632 516.776C599.332 517.208 598.906 517.55 598.354 517.802C597.814 518.042 597.19 518.162 596.482 518.162ZM237.344 543.032C237.344 542.024 237.548 541.142 237.956 540.386C238.364 539.618 238.922 539.024 239.63 538.604C240.35 538.184 241.148 537.974 242.024 537.974C242.888 537.974 243.638 538.16 244.274 538.532C244.91 538.904 245.384 539.372 245.696 539.936V538.136H247.352V548H245.696V546.164C245.372 546.74 244.886 547.22 244.238 547.604C243.602 547.976 242.858 548.162 242.006 548.162C241.13 548.162 240.338 547.946 239.63 547.514C238.922 547.082 238.364 546.476 237.956 545.696C237.548 544.916 237.344 544.028 237.344 543.032ZM245.696 543.05C245.696 542.306 245.546 541.658 245.246 541.106C244.946 540.554 244.538 540.134 244.022 539.846C243.518 539.546 242.96 539.396 242.348 539.396C241.736 539.396 241.178 539.54 240.674 539.828C240.17 540.116 239.768 540.536 239.468 541.088C239.168 541.64 239.018 542.288 239.018 543.032C239.018 543.788 239.168 544.448 239.468 545.012C239.768 545.564 240.17 545.99 240.674 546.29C241.178 546.578 241.736 546.722 242.348 546.722C242.96 546.722 243.518 546.578 244.022 546.29C244.538 545.99 244.946 545.564 245.246 545.012C245.546 544.448 245.696 543.794 245.696 543.05ZM251.758 534.68V548H250.12V534.68H251.758ZM256.188 539.738C256.476 539.174 256.884 538.736 257.412 538.424C257.952 538.112 258.606 537.956 259.374 537.956V539.648H258.942C257.106 539.648 256.188 540.644 256.188 542.636V548H254.55V538.136H256.188V539.738ZM270.265 542.69C270.265 543.002 270.247 543.332 270.211 543.68H262.327C262.387 544.652 262.717 545.414 263.317 545.966C263.929 546.506 264.667 546.776 265.531 546.776C266.239 546.776 266.827 546.614 267.295 546.29C267.775 545.954 268.111 545.51 268.303 544.958H270.067C269.803 545.906 269.275 546.68 268.483 547.28C267.691 547.868 266.707 548.162 265.531 548.162C264.595 548.162 263.755 547.952 263.011 547.532C262.279 547.112 261.703 546.518 261.283 545.75C260.863 544.97 260.653 544.07 260.653 543.05C260.653 542.03 260.857 541.136 261.265 540.368C261.673 539.6 262.243 539.012 262.975 538.604C263.719 538.184 264.571 537.974 265.531 537.974C266.467 537.974 267.295 538.178 268.015 538.586C268.735 538.994 269.287 539.558 269.671 540.278C270.067 540.986 270.265 541.79 270.265 542.69ZM268.573 542.348C268.573 541.724 268.435 541.19 268.159 540.746C267.883 540.29 267.505 539.948 267.025 539.72C266.557 539.48 266.035 539.36 265.459 539.36C264.631 539.36 263.923 539.624 263.335 540.152C262.759 540.68 262.429 541.412 262.345 542.348H268.573ZM271.815 543.032C271.815 542.024 272.019 541.142 272.427 540.386C272.835 539.618 273.393 539.024 274.101 538.604C274.821 538.184 275.619 537.974 276.495 537.974C277.359 537.974 278.109 538.16 278.745 538.532C279.381 538.904 279.855 539.372 280.167 539.936V538.136H281.823V548H280.167V546.164C279.843 546.74 279.357 547.22 278.709 547.604C278.073 547.976 277.329 548.162 276.477 548.162C275.601 548.162 274.809 547.946 274.101 547.514C273.393 547.082 272.835 546.476 272.427 545.696C272.019 544.916 271.815 544.028 271.815 543.032ZM280.167 543.05C280.167 542.306 280.017 541.658 279.717 541.106C279.417 540.554 279.009 540.134 278.493 539.846C277.989 539.546 277.431 539.396 276.819 539.396C276.207 539.396 275.649 539.54 275.145 539.828C274.641 540.116 274.239 540.536 273.939 541.088C273.639 541.64 273.489 542.288 273.489 543.032C273.489 543.788 273.639 544.448 273.939 545.012C274.239 545.564 274.641 545.99 275.145 546.29C275.649 546.578 276.207 546.722 276.819 546.722C277.431 546.722 277.989 546.578 278.493 546.29C279.009 545.99 279.417 545.564 279.717 545.012C280.017 544.448 280.167 543.794 280.167 543.05ZM283.979 543.032C283.979 542.024 284.183 541.142 284.591 540.386C284.999 539.618 285.557 539.024 286.265 538.604C286.985 538.184 287.789 537.974 288.677 537.974C289.445 537.974 290.159 538.154 290.819 538.514C291.479 538.862 291.983 539.324 292.331 539.9V534.68H293.987V548H292.331V546.146C292.007 546.734 291.527 547.22 290.891 547.604C290.255 547.976 289.511 548.162 288.659 548.162C287.783 548.162 286.985 547.946 286.265 547.514C285.557 547.082 284.999 546.476 284.591 545.696C284.183 544.916 283.979 544.028 283.979 543.032ZM292.331 543.05C292.331 542.306 292.181 541.658 291.881 541.106C291.581 540.554 291.173 540.134 290.657 539.846C290.153 539.546 289.595 539.396 288.983 539.396C288.371 539.396 287.813 539.54 287.309 539.828C286.805 540.116 286.403 540.536 286.103 541.088C285.803 541.64 285.653 542.288 285.653 543.032C285.653 543.788 285.803 544.448 286.103 545.012C286.403 545.564 286.805 545.99 287.309 546.29C287.813 546.578 288.371 546.722 288.983 546.722C289.595 546.722 290.153 546.578 290.657 546.29C291.173 545.99 291.581 545.564 291.881 545.012C292.181 544.448 292.331 543.794 292.331 543.05ZM305.251 538.136L299.311 552.644H297.619L299.563 547.892L295.585 538.136H297.403L300.499 546.128L303.559 538.136H305.251ZM311.085 543.05C311.085 542.03 311.289 541.142 311.697 540.386C312.105 539.618 312.669 539.024 313.389 538.604C314.121 538.184 314.955 537.974 315.891 537.974C317.103 537.974 318.099 538.268 318.879 538.856C319.671 539.444 320.193 540.26 320.445 541.304H318.681C318.513 540.704 318.183 540.23 317.691 539.882C317.211 539.534 316.611 539.36 315.891 539.36C314.955 539.36 314.199 539.684 313.623 540.332C313.047 540.968 312.759 541.874 312.759 543.05C312.759 544.238 313.047 545.156 313.623 545.804C314.199 546.452 314.955 546.776 315.891 546.776C316.611 546.776 317.211 546.608 317.691 546.272C318.171 545.936 318.501 545.456 318.681 544.832H320.445C320.181 545.84 319.653 546.65 318.861 547.262C318.069 547.862 317.079 548.162 315.891 548.162C314.955 548.162 314.121 547.952 313.389 547.532C312.669 547.112 312.105 546.518 311.697 545.75C311.289 544.982 311.085 544.082 311.085 543.05ZM324.268 534.68V548H322.63V534.68H324.268ZM326.448 543.032C326.448 542.024 326.652 541.142 327.06 540.386C327.468 539.618 328.026 539.024 328.734 538.604C329.454 538.184 330.252 537.974 331.128 537.974C331.992 537.974 332.742 538.16 333.378 538.532C334.014 538.904 334.488 539.372 334.8 539.936V538.136H336.456V548H334.8V546.164C334.476 546.74 333.99 547.22 333.342 547.604C332.706 547.976 331.962 548.162 331.11 548.162C330.234 548.162 329.442 547.946 328.734 547.514C328.026 547.082 327.468 546.476 327.06 545.696C326.652 544.916 326.448 544.028 326.448 543.032ZM334.8 543.05C334.8 542.306 334.65 541.658 334.35 541.106C334.05 540.554 333.642 540.134 333.126 539.846C332.622 539.546 332.064 539.396 331.452 539.396C330.84 539.396 330.282 539.54 329.778 539.828C329.274 540.116 328.872 540.536 328.572 541.088C328.272 541.64 328.122 542.288 328.122 543.032C328.122 543.788 328.272 544.448 328.572 545.012C328.872 545.564 329.274 545.99 329.778 546.29C330.282 546.578 330.84 546.722 331.452 546.722C332.064 546.722 332.622 546.578 333.126 546.29C333.642 545.99 334.05 545.564 334.35 545.012C334.65 544.448 334.8 543.794 334.8 543.05ZM340.07 536.534C339.758 536.534 339.494 536.426 339.278 536.21C339.062 535.994 338.954 535.73 338.954 535.418C338.954 535.106 339.062 534.842 339.278 534.626C339.494 534.41 339.758 534.302 340.07 534.302C340.37 534.302 340.622 534.41 340.826 534.626C341.042 534.842 341.15 535.106 341.15 535.418C341.15 535.73 341.042 535.994 340.826 536.21C340.622 536.426 340.37 536.534 340.07 536.534ZM340.862 538.136V548H339.224V538.136H340.862ZM355.516 537.956C356.284 537.956 356.968 538.118 357.568 538.442C358.168 538.754 358.642 539.228 358.99 539.864C359.338 540.5 359.512 541.274 359.512 542.186V548H357.892V542.42C357.892 541.436 357.646 540.686 357.154 540.17C356.674 539.642 356.02 539.378 355.192 539.378C354.34 539.378 353.662 539.654 353.158 540.206C352.654 540.746 352.402 541.532 352.402 542.564V548H350.782V542.42C350.782 541.436 350.536 540.686 350.044 540.17C349.564 539.642 348.91 539.378 348.082 539.378C347.23 539.378 346.552 539.654 346.048 540.206C345.544 540.746 345.292 541.532 345.292 542.564V548H343.654V538.136H345.292V539.558C345.616 539.042 346.048 538.646 346.588 538.37C347.14 538.094 347.746 537.956 348.406 537.956C349.234 537.956 349.966 538.142 350.602 538.514C351.238 538.886 351.712 539.432 352.024 540.152C352.3 539.456 352.756 538.916 353.392 538.532C354.028 538.148 354.736 537.956 355.516 537.956ZM371.199 542.69C371.199 543.002 371.181 543.332 371.145 543.68H363.261C363.321 544.652 363.651 545.414 364.251 545.966C364.863 546.506 365.601 546.776 366.465 546.776C367.173 546.776 367.761 546.614 368.229 546.29C368.709 545.954 369.045 545.51 369.237 544.958H371.001C370.737 545.906 370.209 546.68 369.417 547.28C368.625 547.868 367.641 548.162 366.465 548.162C365.529 548.162 364.689 547.952 363.945 547.532C363.213 547.112 362.637 546.518 362.217 545.75C361.797 544.97 361.587 544.07 361.587 543.05C361.587 542.03 361.791 541.136 362.199 540.368C362.607 539.6 363.177 539.012 363.909 538.604C364.653 538.184 365.505 537.974 366.465 537.974C367.401 537.974 368.229 538.178 368.949 538.586C369.669 538.994 370.221 539.558 370.605 540.278C371.001 540.986 371.199 541.79 371.199 542.69ZM369.507 542.348C369.507 541.724 369.369 541.19 369.093 540.746C368.817 540.29 368.439 539.948 367.959 539.72C367.491 539.48 366.969 539.36 366.393 539.36C365.565 539.36 364.857 539.624 364.269 540.152C363.693 540.68 363.363 541.412 363.279 542.348H369.507ZM372.749 543.032C372.749 542.024 372.953 541.142 373.361 540.386C373.769 539.618 374.327 539.024 375.035 538.604C375.755 538.184 376.559 537.974 377.447 537.974C378.215 537.974 378.929 538.154 379.589 538.514C380.249 538.862 380.753 539.324 381.101 539.9V534.68H382.757V548H381.101V546.146C380.777 546.734 380.297 547.22 379.661 547.604C379.025 547.976 378.281 548.162 377.429 548.162C376.553 548.162 375.755 547.946 375.035 547.514C374.327 547.082 373.769 546.476 373.361 545.696C372.953 544.916 372.749 544.028 372.749 543.032ZM381.101 543.05C381.101 542.306 380.951 541.658 380.651 541.106C380.351 540.554 379.943 540.134 379.427 539.846C378.923 539.546 378.365 539.396 377.753 539.396C377.141 539.396 376.583 539.54 376.079 539.828C375.575 540.116 375.173 540.536 374.873 541.088C374.573 541.64 374.423 542.288 374.423 543.032C374.423 543.788 374.573 544.448 374.873 545.012C375.173 545.564 375.575 545.99 376.079 546.29C376.583 546.578 377.141 546.722 377.753 546.722C378.365 546.722 378.923 546.578 379.427 546.29C379.943 545.99 380.351 545.564 380.651 545.012C380.951 544.448 381.101 543.794 381.101 543.05ZM392.322 539.486V545.3C392.322 545.78 392.424 546.122 392.628 546.326C392.832 546.518 393.186 546.614 393.689 546.614H394.896V548H393.42C392.508 548 391.824 547.79 391.368 547.37C390.912 546.95 390.684 546.26 390.684 545.3V539.486H389.406V538.136H390.684V535.652H392.322V538.136H394.896V539.486H392.322ZM401.776 537.956C402.52 537.956 403.192 538.118 403.792 538.442C404.392 538.754 404.86 539.228 405.196 539.864C405.544 540.5 405.718 541.274 405.718 542.186V548H404.098V542.42C404.098 541.436 403.852 540.686 403.36 540.17C402.868 539.642 402.196 539.378 401.344 539.378C400.48 539.378 399.79 539.648 399.274 540.188C398.77 540.728 398.518 541.514 398.518 542.546V548H396.88V534.68H398.518V539.54C398.842 539.036 399.286 538.646 399.85 538.37C400.426 538.094 401.068 537.956 401.776 537.956ZM409.24 536.534C408.928 536.534 408.664 536.426 408.448 536.21C408.232 535.994 408.124 535.73 408.124 535.418C408.124 535.106 408.232 534.842 408.448 534.626C408.664 534.41 408.928 534.302 409.24 534.302C409.54 534.302 409.792 534.41 409.996 534.626C410.212 534.842 410.32 535.106 410.32 535.418C410.32 535.73 410.212 535.994 409.996 536.21C409.792 536.426 409.54 536.534 409.24 536.534ZM410.032 538.136V548H408.394V538.136H410.032ZM416.316 548.162C415.56 548.162 414.882 548.036 414.282 547.784C413.682 547.52 413.208 547.16 412.86 546.704C412.512 546.236 412.32 545.702 412.284 545.102H413.976C414.024 545.594 414.252 545.996 414.66 546.308C415.08 546.62 415.626 546.776 416.298 546.776C416.922 546.776 417.414 546.638 417.774 546.362C418.134 546.086 418.314 545.738 418.314 545.318C418.314 544.886 418.122 544.568 417.738 544.364C417.354 544.148 416.76 543.938 415.956 543.734C415.224 543.542 414.624 543.35 414.156 543.158C413.7 542.954 413.304 542.66 412.968 542.276C412.644 541.88 412.482 541.364 412.482 540.728C412.482 540.224 412.632 539.762 412.932 539.342C413.232 538.922 413.658 538.592 414.21 538.352C414.762 538.1 415.392 537.974 416.1 537.974C417.192 537.974 418.074 538.25 418.746 538.802C419.418 539.354 419.778 540.11 419.826 541.07H418.188C418.152 540.554 417.942 540.14 417.558 539.828C417.186 539.516 416.682 539.36 416.046 539.36C415.458 539.36 414.99 539.486 414.642 539.738C414.294 539.99 414.12 540.32 414.12 540.728C414.12 541.052 414.222 541.322 414.426 541.538C414.642 541.742 414.906 541.91 415.218 542.042C415.542 542.162 415.986 542.3 416.55 542.456C417.258 542.648 417.834 542.84 418.278 543.032C418.722 543.212 419.1 543.488 419.412 543.86C419.736 544.232 419.904 544.718 419.916 545.318C419.916 545.858 419.766 546.344 419.466 546.776C419.166 547.208 418.74 547.55 418.188 547.802C417.648 548.042 417.024 548.162 416.316 548.162ZM429.025 539.486V545.3C429.025 545.78 429.127 546.122 429.331 546.326C429.535 546.518 429.889 546.614 430.393 546.614H431.599V548H430.123C429.211 548 428.527 547.79 428.071 547.37C427.615 546.95 427.387 546.26 427.387 545.3V539.486H426.109V538.136H427.387V535.652H429.025V538.136H431.599V539.486H429.025ZM437.885 548.162C436.961 548.162 436.121 547.952 435.365 547.532C434.621 547.112 434.033 546.518 433.601 545.75C433.181 544.97 432.971 544.07 432.971 543.05C432.971 542.042 433.187 541.154 433.619 540.386C434.063 539.606 434.663 539.012 435.419 538.604C436.175 538.184 437.021 537.974 437.957 537.974C438.893 537.974 439.739 538.184 440.495 538.604C441.251 539.012 441.845 539.6 442.277 540.368C442.721 541.136 442.943 542.03 442.943 543.05C442.943 544.07 442.715 544.97 442.259 545.75C441.815 546.518 441.209 547.112 440.441 547.532C439.673 547.952 438.821 548.162 437.885 548.162ZM437.885 546.722C438.473 546.722 439.025 546.584 439.541 546.308C440.057 546.032 440.471 545.618 440.783 545.066C441.107 544.514 441.269 543.842 441.269 543.05C441.269 542.258 441.113 541.586 440.801 541.034C440.489 540.482 440.081 540.074 439.577 539.81C439.073 539.534 438.527 539.396 437.939 539.396C437.339 539.396 436.787 539.534 436.283 539.81C435.791 540.074 435.395 540.482 435.095 541.034C434.795 541.586 434.645 542.258 434.645 543.05C434.645 543.854 434.789 544.532 435.077 545.084C435.377 545.636 435.773 546.05 436.265 546.326C436.757 546.59 437.297 546.722 437.885 546.722ZM450.605 548L446.735 543.644V548H445.097V534.68H446.735V542.51L450.533 538.136H452.819L448.175 543.05L452.837 548H450.605ZM463.361 542.69C463.361 543.002 463.343 543.332 463.307 543.68H455.423C455.483 544.652 455.813 545.414 456.413 545.966C457.025 546.506 457.763 546.776 458.627 546.776C459.335 546.776 459.923 546.614 460.391 546.29C460.871 545.954 461.207 545.51 461.399 544.958H463.163C462.899 545.906 462.371 546.68 461.579 547.28C460.787 547.868 459.803 548.162 458.627 548.162C457.691 548.162 456.851 547.952 456.107 547.532C455.375 547.112 454.799 546.518 454.379 545.75C453.959 544.97 453.749 544.07 453.749 543.05C453.749 542.03 453.953 541.136 454.361 540.368C454.769 539.6 455.339 539.012 456.071 538.604C456.815 538.184 457.667 537.974 458.627 537.974C459.563 537.974 460.391 538.178 461.111 538.586C461.831 538.994 462.383 539.558 462.767 540.278C463.163 540.986 463.361 541.79 463.361 542.69ZM461.669 542.348C461.669 541.724 461.531 541.19 461.255 540.746C460.979 540.29 460.601 539.948 460.121 539.72C459.653 539.48 459.131 539.36 458.555 539.36C457.727 539.36 457.019 539.624 456.431 540.152C455.855 540.68 455.525 541.412 455.441 542.348H461.669ZM470.329 537.956C471.529 537.956 472.501 538.322 473.245 539.054C473.989 539.774 474.361 540.818 474.361 542.186V548H472.741V542.42C472.741 541.436 472.495 540.686 472.003 540.17C471.511 539.642 470.839 539.378 469.987 539.378C469.123 539.378 468.433 539.648 467.917 540.188C467.413 540.728 467.161 541.514 467.161 542.546V548H465.523V538.136H467.161V539.54C467.485 539.036 467.923 538.646 468.475 538.37C469.039 538.094 469.657 537.956 470.329 537.956ZM477.558 548.108C477.246 548.108 476.982 548 476.766 547.784C476.55 547.568 476.442 547.304 476.442 546.992C476.442 546.68 476.55 546.416 476.766 546.2C476.982 545.984 477.246 545.876 477.558 545.876C477.858 545.876 478.11 545.984 478.314 546.2C478.53 546.416 478.638 546.68 478.638 546.992C478.638 547.304 478.53 547.568 478.314 547.784C478.11 548 477.858 548.108 477.558 548.108Z" fill="white"/>
<g opacity="0.38" filter="url(#filter9_f_70_1251)">
<path d="M637.732 577.299C620.595 577.472 603.572 572.225 587.633 561.858C571.694 551.49 557.153 536.205 544.838 516.874C532.524 497.544 522.678 474.547 515.863 449.197C509.048 423.847 505.397 396.64 505.119 369.13C504.841 341.619 507.94 314.344 514.241 288.861C520.542 263.378 529.92 240.187 541.841 220.612C553.762 201.036 567.991 185.46 583.717 174.772C599.442 164.084 616.356 158.494 633.493 158.32L635.612 367.809L637.732 577.299Z" fill="url(#paint0_linear_70_1251)"/>
</g>
<path d="M632.243 189.064L632.244 189.064C632.438 188.869 632.752 188.869 632.946 189.064C633.131 189.248 633.131 189.572 632.946 189.756L628.056 194.646L627.703 195L628.056 195.354L632.946 200.244C633.141 200.438 633.141 200.752 632.946 200.946C632.752 201.141 632.438 201.141 632.244 200.946L627.354 196.056L627 195.703L626.646 196.056L621.756 200.946C621.562 201.141 621.248 201.141 621.054 200.946C620.859 200.752 620.859 200.438 621.054 200.244L625.944 195.354L626.297 195L625.944 194.646L621.054 189.756C620.859 189.562 620.859 189.248 621.054 189.054C621.248 188.859 621.562 188.859 621.756 189.054L626.646 193.944L627 194.297L627.353 193.944L632.243 189.064Z" fill="white" stroke="white"/>
<rect x="0.5" y="142.5" width="715" height="524" rx="20.5" stroke="#6F59E9"/>
<defs>
<filter id="filter0_ii_70_1251" x="275" y="299" width="124" height="108" filterUnits="userSpaceOnUse" color-interpolation-filters="sRGB">
<feFlood flood-opacity="0" result="BackgroundImageFix"/>
<feBlend mode="normal" in="SourceGraphic" in2="BackgroundImageFix" result="shape"/>
<feColorMatrix in="SourceAlpha" type="matrix" values="0 0 0 0 0 0 0 0 0 0 0 0 0 0 0 0 0 0 127 0" result="hardAlpha"/>
<feOffset dy="-8"/>
<feComposite in2="hardAlpha" operator="arithmetic" k2="-1" k3="1"/>
<feColorMatrix type="matrix" values="0 0 0 0 0 0 0 0 0 0 0 0 0 0 0 0 0 0 0.25 0"/>
<feBlend mode="normal" in2="shape" result="effect1_innerShadow_70_1251"/>
<feColorMatrix in="SourceAlpha" type="matrix" values="0 0 0 0 0 0 0 0 0 0 0 0 0 0 0 0 0 0 127 0" result="hardAlpha"/>
<feOffset dy="8"/>
<feComposite in2="hardAlpha" operator="arithmetic" k2="-1" k3="1"/>
<feColorMatrix type="matrix" values="0 0 0 0 1 0 0 0 0 1 0 0 0 0 1 0 0 0 0.25 0"/>
<feBlend mode="normal" in2="effect1_innerShadow_70_1251" result="effect2_innerShadow_70_1251"/>
</filter>
<filter id="filter1_i_70_1251" x="325" y="299" width="116" height="108" filterUnits="userSpaceOnUse" color-interpolation-filters="sRGB">
<feFlood flood-opacity="0" result="BackgroundImageFix"/>
<feBlend mode="normal" in="SourceGraphic" in2="BackgroundImageFix" result="shape"/>
<feColorMatrix in="SourceAlpha" type="matrix" values="0 0 0 0 0 0 0 0 0 0 0 0 0 0 0 0 0 0 127 0" result="hardAlpha"/>
<feOffset dx="-12" dy="4"/>
<feComposite in2="hardAlpha" operator="arithmetic" k2="-1" k3="1"/>
<feColorMatrix type="matrix" values="0 0 0 0 1 0 0 0 0 1 0 0 0 0 1 0 0 0 0.25 0"/>
<feBlend mode="normal" in2="shape" result="effect1_innerShadow_70_1251"/>
</filter>
<filter id="filter2_ii_70_1251" x="273" y="338.5" width="44.5" height="32" filterUnits="userSpaceOnUse" color-interpolation-filters="sRGB">
<feFlood flood-opacity="0" result="BackgroundImageFix"/>
<feBlend mode="normal" in="SourceGraphic" in2="BackgroundImageFix" result="shape"/>
<feColorMatrix in="SourceAlpha" type="matrix" values="0 0 0 0 0 0 0 0 0 0 0 0 0 0 0 0 0 0 127 0" result="hardAlpha"/>
<feOffset dy="-8"/>
<feComposite in2="hardAlpha" operator="arithmetic" k2="-1" k3="1"/>
<feColorMatrix type="matrix" values="0 0 0 0 0 0 0 0 0 0 0 0 0 0 0 0 0 0 0.25 0"/>
<feBlend mode="normal" in2="shape" result="effect1_innerShadow_70_1251"/>
<feColorMatrix in="SourceAlpha" type="matrix" values="0 0 0 0 0 0 0 0 0 0 0 0 0 0 0 0 0 0 127 0" result="hardAlpha"/>
<feOffset dy="8"/>
<feComposite in2="hardAlpha" operator="arithmetic" k2="-1" k3="1"/>
<feColorMatrix type="matrix" values="0 0 0 0 1 0 0 0 0 1 0 0 0 0 1 0 0 0 0.25 0"/>
<feBlend mode="normal" in2="effect1_innerShadow_70_1251" result="effect2_innerShadow_70_1251"/>
</filter>
<filter id="filter3_i_70_1251" x="301.5" y="338.5" width="16" height="32" filterUnits="userSpaceOnUse" color-interpolation-filters="sRGB">
<feFlood flood-opacity="0" result="BackgroundImageFix"/>
<feBlend mode="normal" in="SourceGraphic" in2="BackgroundImageFix" result="shape"/>
<feColorMatrix in="SourceAlpha" type="matrix" values="0 0 0 0 0 0 0 0 0 0 0 0 0 0 0 0 0 0 127 0" result="hardAlpha"/>
<feOffset dx="-12" dy="4"/>
<feComposite in2="hardAlpha" operator="arithmetic" k2="-1" k3="1"/>
<feColorMatrix type="matrix" values="0 0 0 0 1 0 0 0 0 1 0 0 0 0 1 0 0 0 0.25 0"/>
<feBlend mode="normal" in2="shape" result="effect1_innerShadow_70_1251"/>
</filter>
<filter id="filter4_i_70_1251" x="344.5" y="258" width="27" height="27" filterUnits="userSpaceOnUse" color-interpolation-filters="sRGB">
<feFlood flood-opacity="0" result="BackgroundImageFix"/>
<feBlend mode="normal" in="SourceGraphic" in2="BackgroundImageFix" result="shape"/>
<feColorMatrix in="SourceAlpha" type="matrix" values="0 0 0 0 0 0 0 0 0 0 0 0 0 0 0 0 0 0 127 0" result="hardAlpha"/>
<feOffset dx="6" dy="-4"/>
<feComposite in2="hardAlpha" operator="arithmetic" k2="-1" k3="1"/>
<feColorMatrix type="matrix" values="0 0 0 0 0 0 0 0 0 0 0 0 0 0 0 0 0 0 0.25 0"/>
<feBlend mode="normal" in2="shape" result="effect1_innerShadow_70_1251"/>
</filter>
<filter id="filter5_i_70_1251" x="346.5" y="293" width="23" height="10" filterUnits="userSpaceOnUse" color-interpolation-filters="sRGB">
<feFlood flood-opacity="0" result="BackgroundImageFix"/>
<feBlend mode="normal" in="SourceGraphic" in2="BackgroundImageFix" result="shape"/>
<feColorMatrix in="SourceAlpha" type="matrix" values="0 0 0 0 0 0 0 0 0 0 0 0 0 0 0 0 0 0 127 0" result="hardAlpha"/>
<feOffset dx="-12" dy="4"/>
<feComposite in2="hardAlpha" operator="arithmetic" k2="-1" k3="1"/>
<feColorMatrix type="matrix" values="0 0 0 0 1 0 0 0 0 1 0 0 0 0 1 0 0 0 0.25 0"/>
<feBlend mode="normal" in2="shape" result="effect1_innerShadow_70_1251"/>
</filter>
<filter id="filter6_d_70_1251" x="323" y="303.5" width="109.476" height="88" filterUnits="userSpaceOnUse" color-interpolation-filters="sRGB">
<feFlood flood-opacity="0" result="BackgroundImageFix"/>
<feColorMatrix in="SourceAlpha" type="matrix" values="0 0 0 0 0 0 0 0 0 0 0 0 0 0 0 0 0 0 127 0" result="hardAlpha"/>
<feOffset dx="-2" dy="2"/>
<feColorMatrix type="matrix" values="0 0 0 0 0 0 0 0 0 0 0 0 0 0 0 0 0 0 0.25 0"/>
<feBlend mode="normal" in2="BackgroundImageFix" result="effect1_dropShadow_70_1251"/>
<feBlend mode="normal" in="SourceGraphic" in2="effect1_dropShadow_70_1251" result="shape"/>
</filter>
<filter id="filter7_i_70_1251" x="380.115" y="303.5" width="52.3605" height="85.5" filterUnits="userSpaceOnUse" color-interpolation-filters="sRGB">
<feFlood flood-opacity="0" result="BackgroundImageFix"/>
<feBlend mode="normal" in="SourceGraphic" in2="BackgroundImageFix" result="shape"/>
<feColorMatrix in="SourceAlpha" type="matrix" values="0 0 0 0 0 0 0 0 0 0 0 0 0 0 0 0 0 0 127 0" result="hardAlpha"/>
<feOffset dx="8" dy="-4"/>
<feComposite in2="hardAlpha" operator="arithmetic" k2="-1" k3="1"/>
<feColorMatrix type="matrix" values="0 0 0 0 0 0 0 0 0 0 0 0 0 0 0 0 0 0 0.25 0"/>
<feBlend mode="normal" in2="shape" result="effect1_innerShadow_70_1251"/>
</filter>
<filter id="filter8_i_70_1251" x="327.297" y="303.5" width="52.3605" height="85.5" filterUnits="userSpaceOnUse" color-interpolation-filters="sRGB">
<feFlood flood-opacity="0" result="BackgroundImageFix"/>
<feBlend mode="normal" in="SourceGraphic" in2="BackgroundImageFix" result="shape"/>
<feColorMatrix in="SourceAlpha" type="matrix" values="0 0 0 0 0 0 0 0 0 0 0 0 0 0 0 0 0 0 127 0" result="hardAlpha"/>
<feOffset dx="8" dy="-4"/>
<feComposite in2="hardAlpha" operator="arithmetic" k2="-1" k3="1"/>
<feColorMatrix type="matrix" values="0 0 0 0 0 0 0 0 0 0 0 0 0 0 0 0 0 0 0.25 0"/>
<feBlend mode="normal" in2="shape" result="effect1_innerShadow_70_1251"/>
</filter>
<filter id="filter9_f_70_1251" x="347.102" y="0.320312" width="448.63" height="734.983" filterUnits="userSpaceOnUse" color-interpolation-filters="sRGB">
<feFlood flood-opacity="0" result="BackgroundImageFix"/>
<feBlend mode="normal" in="SourceGraphic" in2="BackgroundImageFix" result="shape"/>
<feGaussianBlur stdDeviation="79" result="effect1_foregroundBlur_70_1251"/>
</filter>
<linearGradient id="paint0_linear_70_1251" x1="763.986" y1="157" x2="394.064" y2="309.263" gradientUnits="userSpaceOnUse">
<stop stop-color="#D12EEF"/>
<stop offset="1" stop-color="#6F59E9"/>
</linearGradient>
</defs>
</svg>
