<svg width="180" height="180" viewBox="0 0 180 180" fill="none" xmlns="http://www.w3.org/2000/svg">
<g filter="url(#filter0_ii_70_1303)">
<path d="M9 70C9 63.3726 14.3726 58 21 58H117C123.627 58 129 63.3726 129 70V150C129 156.627 123.627 162 117 162H21C14.3726 162 9 156.627 9 150V70Z" fill="#8A7DD8"/>
</g>
<path d="M9 70C9 63.3726 14.3726 58 21 58H117C123.627 58 129 63.3726 129 70V150C129 156.627 123.627 162 117 162H21C14.3726 162 9 156.627 9 150V70Z" stroke="#1F2024" stroke-width="4"/>
<g filter="url(#filter1_i_70_1303)">
<path d="M59 70C59 63.3726 64.3726 58 71 58H159C165.627 58 171 63.3726 171 70V150C171 156.627 165.627 162 159 162H71C64.3726 162 59 156.627 59 150V70Z" fill="#AEA5EE"/>
</g>
<path d="M59 70C59 63.3726 64.3726 58 71 58H159C165.627 58 171 63.3726 171 70V150C171 156.627 165.627 162 159 162H71C64.3726 162 59 156.627 59 150V70Z" stroke="#1F2024" stroke-width="4"/>
<path d="M123 60H142L114 160H95L123 60Z" fill="white" fill-opacity="0.5"/>
<path d="M115.5 60H118.5L90.5 160H87.5L115.5 60Z" fill="white" fill-opacity="0.5"/>
<path d="M9 107.5C9 105.291 10.7909 103.5 13 103.5H43C45.2091 103.5 47 105.291 47 107.5V127.5C47 129.709 45.2091 131.5 43 131.5H13C10.7909 131.5 9 129.709 9 127.5V107.5Z" fill="#1F2024" fill-opacity="0.16"/>
<g filter="url(#filter2_ii_70_1303)">
<path d="M7 101.5C7 99.2909 8.79086 97.5 11 97.5H43.5C45.7091 97.5 47.5 99.2909 47.5 101.5V121.5C47.5 123.709 45.7091 125.5 43.5 125.5H11C8.79086 125.5 7 123.709 7 121.5V101.5Z" fill="#8A7DD8"/>
</g>
<path d="M7 101.5C7 99.2909 8.79086 97.5 11 97.5H43.5C45.7091 97.5 47.5 99.2909 47.5 101.5V121.5C47.5 123.709 45.7091 125.5 43.5 125.5H11C8.79086 125.5 7 123.709 7 121.5V101.5Z" stroke="#1F2024" stroke-width="4"/>
<g filter="url(#filter3_i_70_1303)">
<path d="M35.5 101.5C35.5 99.2909 37.2909 97.5 39.5 97.5H43.5C45.7091 97.5 47.5 99.2909 47.5 101.5V121.5C47.5 123.709 45.7091 125.5 43.5 125.5H39.5C37.2909 125.5 35.5 123.709 35.5 121.5V101.5Z" fill="#AEA5EE"/>
</g>
<path d="M35.5 101.5C35.5 99.2909 37.2909 97.5 39.5 97.5H43.5C45.7091 97.5 47.5 99.2909 47.5 101.5V121.5C47.5 123.709 45.7091 125.5 43.5 125.5H39.5C37.2909 125.5 35.5 123.709 35.5 121.5V101.5Z" stroke="#1F2024" stroke-width="4"/>
<rect x="15.5" y="107" width="4" height="10" rx="2" fill="#1F2024"/>
<rect x="21.5" y="107" width="4" height="10" rx="2" fill="#1F2024"/>
<rect x="86.5" y="32.5" width="7" height="22.5" fill="#AEA5EE" stroke="#1F2024" stroke-width="4"/>
<g filter="url(#filter4_i_70_1303)">
<circle cx="90" cy="28.5" r="11.5" fill="#9BCEF1"/>
</g>
<circle cx="90" cy="28.5" r="11.5" stroke="#1F2024" stroke-width="4"/>
<circle cx="94.5" cy="24" r="3" fill="white"/>
<g filter="url(#filter5_i_70_1303)">
<path d="M80.5 54C80.5 52.8954 81.3954 52 82.5 52H97.5C98.6046 52 99.5 52.8954 99.5 54V58H80.5V54Z" fill="#AEA5EE"/>
</g>
<path d="M80.5 54C80.5 52.8954 81.3954 52 82.5 52H97.5C98.6046 52 99.5 52.8954 99.5 54V58H80.5V54Z" stroke="#1F2024" stroke-width="4"/>
<g filter="url(#filter6_d_70_1303)">
<path d="M160.179 103.75C160.179 115.248 157.321 125.561 152.805 132.934C148.269 140.341 142.27 144.5 135.999 144.5C129.727 144.5 123.728 140.341 119.192 132.934C114.676 125.561 111.818 115.248 111.818 103.75C111.818 92.2524 114.676 81.9391 119.192 74.5657C123.728 67.1585 129.727 63 135.999 63C142.27 63 148.269 67.1585 152.805 74.5657C157.321 81.9391 160.179 92.2524 160.179 103.75Z" fill="#1F2024" stroke="#1F2024" stroke-width="4"/>
<g filter="url(#filter7_i_70_1303)">
<ellipse cx="138.295" cy="103.25" rx="26.1802" ry="42.75" fill="white"/>
</g>
<path d="M162.476 103.25C162.476 114.748 159.618 125.061 155.102 132.434C150.566 139.841 144.567 144 138.295 144C132.024 144 126.025 139.841 121.489 132.434C116.973 125.061 114.115 114.748 114.115 103.25C114.115 91.7524 116.973 81.4391 121.489 74.0657C126.025 66.6585 132.024 62.5 138.295 62.5C144.567 62.5 150.566 66.6585 155.102 74.0657C159.618 81.4391 162.476 91.7524 162.476 103.25Z" stroke="#1F2024" stroke-width="4"/>
<path d="M141.388 102.25C141.388 109.139 136.182 114.5 130.027 114.5C123.873 114.5 118.667 109.139 118.667 102.25C118.667 95.3611 123.873 90 130.027 90C136.182 90 141.388 95.3611 141.388 102.25Z" fill="#1058C5" stroke="#1F2024" stroke-width="4"/>
<path d="M133.58 102.25C133.58 105.114 131.203 107.5 128.19 107.5C125.178 107.5 122.801 105.114 122.801 102.25C122.801 99.3863 125.178 97 128.19 97C131.203 97 133.58 99.3863 133.58 102.25Z" fill="#1F2024" stroke="#1F2024" stroke-width="4"/>
<ellipse cx="134.243" cy="98.25" rx="3.63372" ry="3.75" fill="white"/>
<path d="M107.36 103.75C107.36 115.248 104.502 125.561 99.9869 132.934C95.4507 140.341 89.4514 144.5 83.1802 144.5C76.9091 144.5 70.9098 140.341 66.3736 132.934C61.8581 125.561 59 115.248 59 103.75C59 92.2524 61.8581 81.9391 66.3736 74.5657C70.9098 67.1585 76.9091 63 83.1802 63C89.4514 63 95.4507 67.1585 99.9869 74.5657C104.502 81.9391 107.36 92.2524 107.36 103.75Z" fill="#1F2024" stroke="#1F2024" stroke-width="4"/>
<g filter="url(#filter8_i_70_1303)">
<ellipse cx="85.4771" cy="103.25" rx="26.1802" ry="42.75" fill="white"/>
</g>
<path d="M109.657 103.25C109.657 114.748 106.799 125.061 102.284 132.434C97.7476 139.841 91.7483 144 85.4771 144C79.2059 144 73.2066 139.841 68.6705 132.434C64.1549 125.061 61.2969 114.748 61.2969 103.25C61.2969 91.7524 64.1549 81.4391 68.6705 74.0657C73.2066 66.6585 79.206 62.5 85.4771 62.5C91.7483 62.5 97.7476 66.6585 102.284 74.0657C106.799 81.4391 109.657 91.7524 109.657 103.25Z" stroke="#1F2024" stroke-width="4"/>
<path d="M88.5696 102.25C88.5696 109.139 83.3638 114.5 77.2091 114.5C71.0544 114.5 65.8486 109.139 65.8486 102.25C65.8486 95.3611 71.0544 90 77.2091 90C83.3638 90 88.5696 95.3611 88.5696 102.25Z" fill="#1058C5" stroke="#1F2024" stroke-width="4"/>
<path d="M80.7615 102.25C80.7615 105.114 78.3846 107.5 75.372 107.5C72.3593 107.5 69.9824 105.114 69.9824 102.25C69.9824 99.3863 72.3593 97 75.372 97C78.3846 97 80.7615 99.3863 80.7615 102.25Z" fill="#1F2024" stroke="#1F2024" stroke-width="4"/>
<ellipse cx="81.4247" cy="98.25" rx="3.63372" ry="3.75" fill="white"/>
</g>
<defs>
<filter id="filter0_ii_70_1303" x="7" y="56" width="124" height="108" filterUnits="userSpaceOnUse" color-interpolation-filters="sRGB">
<feFlood flood-opacity="0" result="BackgroundImageFix"/>
<feBlend mode="normal" in="SourceGraphic" in2="BackgroundImageFix" result="shape"/>
<feColorMatrix in="SourceAlpha" type="matrix" values="0 0 0 0 0 0 0 0 0 0 0 0 0 0 0 0 0 0 127 0" result="hardAlpha"/>
<feOffset dy="-8"/>
<feComposite in2="hardAlpha" operator="arithmetic" k2="-1" k3="1"/>
<feColorMatrix type="matrix" values="0 0 0 0 0 0 0 0 0 0 0 0 0 0 0 0 0 0 0.25 0"/>
<feBlend mode="normal" in2="shape" result="effect1_innerShadow_70_1303"/>
<feColorMatrix in="SourceAlpha" type="matrix" values="0 0 0 0 0 0 0 0 0 0 0 0 0 0 0 0 0 0 127 0" result="hardAlpha"/>
<feOffset dy="8"/>
<feComposite in2="hardAlpha" operator="arithmetic" k2="-1" k3="1"/>
<feColorMatrix type="matrix" values="0 0 0 0 1 0 0 0 0 1 0 0 0 0 1 0 0 0 0.25 0"/>
<feBlend mode="normal" in2="effect1_innerShadow_70_1303" result="effect2_innerShadow_70_1303"/>
</filter>
<filter id="filter1_i_70_1303" x="57" y="56" width="116" height="108" filterUnits="userSpaceOnUse" color-interpolation-filters="sRGB">
<feFlood flood-opacity="0" result="BackgroundImageFix"/>
<feBlend mode="normal" in="SourceGraphic" in2="BackgroundImageFix" result="shape"/>
<feColorMatrix in="SourceAlpha" type="matrix" values="0 0 0 0 0 0 0 0 0 0 0 0 0 0 0 0 0 0 127 0" result="hardAlpha"/>
<feOffset dx="-12" dy="4"/>
<feComposite in2="hardAlpha" operator="arithmetic" k2="-1" k3="1"/>
<feColorMatrix type="matrix" values="0 0 0 0 1 0 0 0 0 1 0 0 0 0 1 0 0 0 0.25 0"/>
<feBlend mode="normal" in2="shape" result="effect1_innerShadow_70_1303"/>
</filter>
<filter id="filter2_ii_70_1303" x="5" y="95.5" width="44.5" height="32" filterUnits="userSpaceOnUse" color-interpolation-filters="sRGB">
<feFlood flood-opacity="0" result="BackgroundImageFix"/>
<feBlend mode="normal" in="SourceGraphic" in2="BackgroundImageFix" result="shape"/>
<feColorMatrix in="SourceAlpha" type="matrix" values="0 0 0 0 0 0 0 0 0 0 0 0 0 0 0 0 0 0 127 0" result="hardAlpha"/>
<feOffset dy="-8"/>
<feComposite in2="hardAlpha" operator="arithmetic" k2="-1" k3="1"/>
<feColorMatrix type="matrix" values="0 0 0 0 0 0 0 0 0 0 0 0 0 0 0 0 0 0 0.25 0"/>
<feBlend mode="normal" in2="shape" result="effect1_innerShadow_70_1303"/>
<feColorMatrix in="SourceAlpha" type="matrix" values="0 0 0 0 0 0 0 0 0 0 0 0 0 0 0 0 0 0 127 0" result="hardAlpha"/>
<feOffset dy="8"/>
<feComposite in2="hardAlpha" operator="arithmetic" k2="-1" k3="1"/>
<feColorMatrix type="matrix" values="0 0 0 0 1 0 0 0 0 1 0 0 0 0 1 0 0 0 0.25 0"/>
<feBlend mode="normal" in2="effect1_innerShadow_70_1303" result="effect2_innerShadow_70_1303"/>
</filter>
<filter id="filter3_i_70_1303" x="33.5" y="95.5" width="16" height="32" filterUnits="userSpaceOnUse" color-interpolation-filters="sRGB">
<feFlood flood-opacity="0" result="BackgroundImageFix"/>
<feBlend mode="normal" in="SourceGraphic" in2="BackgroundImageFix" result="shape"/>
<feColorMatrix in="SourceAlpha" type="matrix" values="0 0 0 0 0 0 0 0 0 0 0 0 0 0 0 0 0 0 127 0" result="hardAlpha"/>
<feOffset dx="-12" dy="4"/>
<feComposite in2="hardAlpha" operator="arithmetic" k2="-1" k3="1"/>
<feColorMatrix type="matrix" values="0 0 0 0 1 0 0 0 0 1 0 0 0 0 1 0 0 0 0.25 0"/>
<feBlend mode="normal" in2="shape" result="effect1_innerShadow_70_1303"/>
</filter>
<filter id="filter4_i_70_1303" x="76.5" y="15" width="27" height="27" filterUnits="userSpaceOnUse" color-interpolation-filters="sRGB">
<feFlood flood-opacity="0" result="BackgroundImageFix"/>
<feBlend mode="normal" in="SourceGraphic" in2="BackgroundImageFix" result="shape"/>
<feColorMatrix in="SourceAlpha" type="matrix" values="0 0 0 0 0 0 0 0 0 0 0 0 0 0 0 0 0 0 127 0" result="hardAlpha"/>
<feOffset dx="6" dy="-4"/>
<feComposite in2="hardAlpha" operator="arithmetic" k2="-1" k3="1"/>
<feColorMatrix type="matrix" values="0 0 0 0 0 0 0 0 0 0 0 0 0 0 0 0 0 0 0.25 0"/>
<feBlend mode="normal" in2="shape" result="effect1_innerShadow_70_1303"/>
</filter>
<filter id="filter5_i_70_1303" x="78.5" y="50" width="23" height="10" filterUnits="userSpaceOnUse" color-interpolation-filters="sRGB">
<feFlood flood-opacity="0" result="BackgroundImageFix"/>
<feBlend mode="normal" in="SourceGraphic" in2="BackgroundImageFix" result="shape"/>
<feColorMatrix in="SourceAlpha" type="matrix" values="0 0 0 0 0 0 0 0 0 0 0 0 0 0 0 0 0 0 127 0" result="hardAlpha"/>
<feOffset dx="-12" dy="4"/>
<feComposite in2="hardAlpha" operator="arithmetic" k2="-1" k3="1"/>
<feColorMatrix type="matrix" values="0 0 0 0 1 0 0 0 0 1 0 0 0 0 1 0 0 0 0.25 0"/>
<feBlend mode="normal" in2="shape" result="effect1_innerShadow_70_1303"/>
</filter>
<filter id="filter6_d_70_1303" x="55" y="60.5" width="109.476" height="88" filterUnits="userSpaceOnUse" color-interpolation-filters="sRGB">
<feFlood flood-opacity="0" result="BackgroundImageFix"/>
<feColorMatrix in="SourceAlpha" type="matrix" values="0 0 0 0 0 0 0 0 0 0 0 0 0 0 0 0 0 0 127 0" result="hardAlpha"/>
<feOffset dx="-2" dy="2"/>
<feColorMatrix type="matrix" values="0 0 0 0 0 0 0 0 0 0 0 0 0 0 0 0 0 0 0.25 0"/>
<feBlend mode="normal" in2="BackgroundImageFix" result="effect1_dropShadow_70_1303"/>
<feBlend mode="normal" in="SourceGraphic" in2="effect1_dropShadow_70_1303" result="shape"/>
</filter>
<filter id="filter7_i_70_1303" x="112.115" y="60.5" width="52.3605" height="85.5" filterUnits="userSpaceOnUse" color-interpolation-filters="sRGB">
<feFlood flood-opacity="0" result="BackgroundImageFix"/>
<feBlend mode="normal" in="SourceGraphic" in2="BackgroundImageFix" result="shape"/>
<feColorMatrix in="SourceAlpha" type="matrix" values="0 0 0 0 0 0 0 0 0 0 0 0 0 0 0 0 0 0 127 0" result="hardAlpha"/>
<feOffset dx="8" dy="-4"/>
<feComposite in2="hardAlpha" operator="arithmetic" k2="-1" k3="1"/>
<feColorMatrix type="matrix" values="0 0 0 0 0 0 0 0 0 0 0 0 0 0 0 0 0 0 0.25 0"/>
<feBlend mode="normal" in2="shape" result="effect1_innerShadow_70_1303"/>
</filter>
<filter id="filter8_i_70_1303" x="59.2969" y="60.5" width="52.3605" height="85.5" filterUnits="userSpaceOnUse" color-interpolation-filters="sRGB">
<feFlood flood-opacity="0" result="BackgroundImageFix"/>
<feBlend mode="normal" in="SourceGraphic" in2="BackgroundImageFix" result="shape"/>
<feColorMatrix in="SourceAlpha" type="matrix" values="0 0 0 0 0 0 0 0 0 0 0 0 0 0 0 0 0 0 127 0" result="hardAlpha"/>
<feOffset dx="8" dy="-4"/>
<feComposite in2="hardAlpha" operator="arithmetic" k2="-1" k3="1"/>
<feColorMatrix type="matrix" values="0 0 0 0 0 0 0 0 0 0 0 0 0 0 0 0 0 0 0.25 0"/>
<feBlend mode="normal" in2="shape" result="effect1_innerShadow_70_1303"/>
</filter>
</defs>
</svg>
